<?xml version="1.0" encoding="UTF-8"?>
<!DOCTYPE svg PUBLIC "-//W3C//DTD SVG 1.1//EN" "http://www.w3.org/Graphics/SVG/1.1/DTD/svg11.dtd">
<!-- Creator: CorelDRAW X7 -->
<svg xmlns="http://www.w3.org/2000/svg" xml:space="preserve" width="181.246mm" height="106.204mm" version="1.1" style="shape-rendering:geometricPrecision; text-rendering:geometricPrecision; image-rendering:optimizeQuality; fill-rule:evenodd; clip-rule:evenodd"
viewBox="0 0 4593 2691"
 xmlns:xlink="http://www.w3.org/1999/xlink">
 <defs>
  <style type="text/css">
   <![CDATA[
    .fil0 {fill:white;fill-rule:nonzero}
   ]]>
  </style>
 </defs>
 <g id="Слой_x0020_1">
  <metadata id="CorelCorpID_0Corel-Layer"/>
  <g id="_411377472">
   <path class="fil0" d="M2558 1748l-4 10c-177,517 -663,864 -1208,864 -370,0 -704,-158 -937,-410 194,161 444,258 716,258 227,0 446,-68 634,-196 183,-126 324,-300 407,-505l9 -21 -74 0 -4 9c-166,392 -548,644 -972,644 -315,0 -598,-138 -791,-357 154,126 351,201 566,201 331,0 635,-182 792,-475l13 -22 -78 0 -5 8c-148,259 -425,421 -722,421 -266,0 -504,-126 -656,-321 113,91 256,146 412,146 191,0 372,-84 497,-229l22 -25 -91 0 -5 5c-112,116 -262,180 -423,180 -324,0 -587,-263 -587,-587 0,-324 263,-588 587,-588 142,0 280,52 387,146l4 4 99 0 -26 -27c-124,-123 -289,-192 -464,-192 -156,0 -299,55 -412,146 152,-195 390,-320 656,-320 285,0 547,144 701,386l5 7 80 0 -14 -24c-79,-131 -190,-241 -322,-317 -137,-79 -292,-121 -450,-121 -215,0 -412,75 -566,201 193,-219 476,-357 791,-357 407,0 783,239 956,609l4 9 76 0 -10 -22c-182,-404 -585,-665 -1026,-665 -272,0 -522,97 -716,258 233,-252 567,-410 937,-410 264,0 518,80 734,233 211,149 371,355 461,596l4 10 73 0 -7 -21c-193,-531 -702,-887 -1265,-887 -733,0 -1330,588 -1346,1317 0,9 0,19 0,29 0,9 0,19 0,29 16,728 613,1316 1346,1316 288,0 563,-90 795,-261 227,-167 394,-396 482,-662l7 -20 -72 0z"/>
   <path class="fil0" d="M494 1247c-25,-38 -71,-61 -126,-61 -92,0 -153,64 -153,148 0,83 61,148 153,148 55,0 101,-24 126,-61l85 0c-33,81 -110,134 -211,134 -131,0 -231,-94 -231,-221 0,-128 100,-221 231,-221 101,0 178,53 211,134l-85 0z"/>
   <path class="fil0" d="M920 1474c88,0 134,-63 134,-140 0,-76 -46,-140 -134,-140l-12 0 0 280 12 0zm-90 0l0 -280 -12 0c-87,0 -133,64 -133,140 0,77 46,140 133,140l12 0zm0 69l-14 0c-127,0 -209,-93 -209,-209 0,-117 82,-209 209,-209l14 0 0 -119 78 0 0 119 15 0c126,0 209,92 209,209 0,116 -83,209 -209,209l-15 0 0 116 -78 0 0 -116z"/>
   <path class="fil0" d="M1263 1295l293 0c-11,-66 -61,-109 -141,-109 -84,0 -142,43 -152,109zm284 131l84 0c-32,81 -110,129 -211,129 -138,0 -238,-93 -238,-222 0,-126 95,-220 233,-220 130,0 221,95 221,215 0,10 1,23 -1,35l-373 0c10,68 74,119 158,119 57,0 103,-19 127,-56z"/>
   <path class="fil0" d="M1925 1482c86,0 147,-67 147,-148 0,-81 -61,-148 -147,-148 -77,0 -153,49 -153,148 0,100 76,148 153,148zm-229 177l0 -534 79 0 0 45c32,-35 89,-57 151,-57 145,0 224,105 224,221 0,115 -79,221 -224,221 -62,0 -119,-22 -151,-58l0 162 -79 0z"/>
   <path class="fil0" d="M2429 1186c-87,0 -148,67 -148,148 0,81 61,148 148,148 76,0 152,-48 152,-148 0,-99 -76,-148 -152,-148zm228 -61l0 418 -78 0 0 -46c-33,36 -90,58 -152,58 -145,0 -224,-106 -224,-221 0,-116 79,-221 224,-221 62,0 119,22 152,57l0 -45 78 0z"/>
   <path class="fil0" d="M3053 1280l33 0 0 -131 52 0 0 -30 -137 0 0 30 52 0 0 131zm203 -87c7,-8 12,-17 12,-29 0,-27 -22,-45 -51,-45l-58 0 0 161 72 0c31,0 53,-20 53,-47 0,-20 -11,-34 -28,-40zm-42 -46c14,0 21,7 21,18 0,11 -7,19 -21,19l-23 0 0 -37 23 0zm15 105l-38 0 0 -41 38 0c14,0 23,8 23,20 0,13 -9,21 -23,21zm158 31c48,0 86,-36 86,-84 0,-47 -38,-83 -86,-83 -47,0 -85,36 -85,83 0,48 38,84 85,84zm0 -31c-30,0 -51,-21 -51,-53 0,-31 21,-53 51,-53 30,0 52,22 52,53 0,32 -22,53 -52,53zm114 28l33 0 0 -57 27 0c34,0 59,-21 59,-52 0,-32 -25,-52 -59,-52l-60 0 0 161zm33 -86l0 -46 27 0c16,0 25,9 25,23 0,14 -9,23 -25,23l-27 0zm203 -75l0 72c-9,4 -19,5 -28,5 -26,0 -37,-12 -37,-37l0 -40 -33 0 0 43c0,42 25,64 64,64 12,0 24,-2 34,-5l0 59 33 0 0 -161 -33 0zm70 161l111 0 0 -30 -78 0 0 -41 55 0 0 -28 -55 0 0 -32 75 0 0 -30 -108 0 0 161zm212 3c31,0 58,-16 71,-40l-24 -18c-11,17 -26,27 -47,27 -30,0 -52,-21 -52,-52 0,-32 22,-54 52,-54 21,0 36,10 47,27l24 -17c-14,-25 -40,-40 -71,-40 -48,0 -86,36 -86,83 0,48 38,84 86,84zm239 -3l-70 -85 62 -76 -40 0 -61 74 0 -74 -33 0 0 161 33 0 0 -84 69 84 40 0zm149 -164l-95 102 0 -99 -33 0 0 164 11 0 95 -103 0 100 33 0 0 -164 -11 0zm121 -12c25,0 42,-17 42,-43l0 -3 -26 0 0 4c0,12 -6,19 -16,19 -10,0 -16,-7 -16,-19l0 -4 -26 0 0 3c0,26 17,43 42,43zm54 12l-95 102 0 -99 -33 0 0 164 11 0 95 -103 0 100 33 0 0 -164 -11 0z"/>
   <path class="fil0" d="M3140 1583l31 0 0 -64 -21 0 0 -132 -33 0 0 132 -67 0 0 -132 -33 0 0 161 123 0 0 35zm56 -35l111 0 0 -29 -78 0 0 -41 55 0 0 -28 -55 0 0 -33 75 0 0 -30 -108 0 0 161zm140 0l33 0 0 -69 71 0 0 69 33 0 0 -161 -33 0 0 62 -71 0 0 -62 -33 0 0 161zm210 0l33 0 0 -131 52 0 0 -30 -136 0 0 30 51 0 0 131zm107 0l32 0 0 -56 28 0c34,0 58,-22 58,-53 0,-31 -24,-52 -58,-52l-60 0 0 161zm32 -85l0 -47 28 0c15,0 24,10 24,23 0,14 -9,24 -24,24l-28 0z"/>
  </g>
 </g>
</svg>
