<?xml version="1.0" encoding="UTF-8"?>
<!DOCTYPE svg PUBLIC "-//W3C//DTD SVG 1.1//EN" "http://www.w3.org/Graphics/SVG/1.1/DTD/svg11.dtd">
<!-- Creator: CorelDRAW X7 -->
<svg xmlns="http://www.w3.org/2000/svg" xml:space="preserve" width="1357px" height="795px" version="1.1" style="shape-rendering:geometricPrecision; text-rendering:geometricPrecision; image-rendering:optimizeQuality; fill-rule:evenodd; clip-rule:evenodd"
viewBox="0 0 1353 793"
 xmlns:xlink="http://www.w3.org/1999/xlink">
 <defs>
  <style type="text/css">
   <![CDATA[
    .fil0 {fill:#2D2D6B;fill-rule:nonzero}
   ]]>
  </style>
 </defs>
 <g id="Слой_x0020_1">
  <metadata id="CorelCorpID_0Corel-Layer"/>
  <g id="_411386472">
   <path class="fil0" d="M754 515l-2 3c-52,152 -195,255 -356,255 -109,0 -207,-47 -276,-121 58,47 131,76 211,76 67,0 132,-20 187,-58 54,-37 96,-89 120,-149l3 -6 -22 0 -1 3c-49,115 -162,190 -287,190 -92,0 -176,-41 -233,-106 46,37 104,60 167,60 98,0 187,-54 234,-140l3 -7 -23 0 -1 2c-44,77 -125,124 -213,124 -78,0 -148,-37 -193,-94 33,27 75,43 121,43 57,0 110,-25 147,-68l6 -7 -27 0 -1 1c-33,35 -77,54 -125,54 -95,0 -173,-78 -173,-174 0,-95 78,-173 173,-173 42,0 83,16 114,43l2 1 29 0 -8 -7c-37,-37 -85,-57 -137,-57 -46,0 -88,16 -121,43 45,-57 115,-94 193,-94 84,0 161,42 207,113l1 2 24 0 -4 -6c-24,-39 -56,-71 -95,-94 -41,-23 -86,-36 -133,-36 -63,0 -121,23 -167,60 57,-65 141,-106 233,-106 120,0 231,71 282,180l1 2 23 0 -3 -6c-54,-119 -172,-196 -303,-196 -80,0 -153,29 -211,76 69,-74 167,-121 276,-121 78,0 153,24 217,69 62,44 109,105 136,175l1 3 21 0 -2 -6c-57,-156 -206,-261 -373,-261 -215,0 -391,173 -396,388 0,3 0,6 0,8 0,3 0,6 0,9 5,215 181,388 396,388 85,0 166,-27 235,-77 67,-49 116,-117 142,-195l2 -6 -21 0z"/>
   <path class="fil0" d="M146 367c-8,-11 -21,-18 -38,-18 -27,0 -45,19 -45,44 0,25 18,44 45,44 17,0 30,-7 38,-18l24 0c-9,24 -32,39 -62,39 -38,0 -68,-28 -68,-65 0,-38 30,-65 68,-65 30,0 53,15 62,39l-24 0z"/>
   <path class="fil0" d="M271 434c26,0 40,-18 40,-41 0,-22 -14,-41 -40,-41l-3 0 0 82 3 0zm-26 0l0 -82 -4 0c-26,0 -39,19 -39,41 0,23 13,41 39,41l4 0zm0 21l-5 0c-37,0 -61,-28 -61,-62 0,-34 24,-62 61,-62l5 0 0 -35 23 0 0 35 4 0c37,0 62,28 62,62 0,34 -25,62 -62,62l-4 0 0 34 -23 0 0 -34z"/>
   <path class="fil0" d="M372 381l86 0c-3,-19 -18,-32 -41,-32 -25,0 -42,13 -45,32zm84 39l25 0c-10,24 -33,38 -63,38 -40,0 -70,-27 -70,-65 0,-37 28,-65 69,-65 38,0 65,28 65,63 0,3 0,7 0,11l-110 0c3,20 21,35 46,35 17,0 31,-6 38,-17z"/>
   <path class="fil0" d="M567 437c25,0 43,-20 43,-44 0,-24 -18,-44 -43,-44 -22,0 -45,15 -45,44 0,29 23,44 45,44zm-67 52l0 -158 23 0 0 14c9,-11 26,-17 45,-17 42,0 65,31 65,65 0,34 -23,65 -65,65 -19,0 -36,-6 -45,-17l0 48 -23 0z"/>
   <path class="fil0" d="M716 349c-26,0 -44,20 -44,44 0,24 18,44 44,44 22,0 45,-15 45,-44 0,-29 -23,-44 -45,-44zm67 -18l0 124 -23 0 0 -14c-10,11 -27,17 -45,17 -43,0 -66,-31 -66,-65 0,-34 23,-65 66,-65 18,0 35,6 45,17l0 -14 23 0z"/>
   <path class="fil0" d="M900 377l9 0 0 -39 15 0 0 -8 -40 0 0 8 16 0 0 39zm59 -26c2,-2 4,-5 4,-8 0,-8 -7,-13 -15,-13l-17 0 0 47 21 0c9,0 16,-6 16,-14 0,-6 -4,-10 -9,-12zm-12 -13c4,0 6,2 6,5 0,4 -2,6 -6,6l-7 0 0 -11 7 0zm4 31l-11 0 0 -12 11 0c5,0 7,2 7,6 0,4 -2,6 -7,6zm47 9c14,0 25,-11 25,-25 0,-14 -11,-24 -25,-24 -14,0 -25,10 -25,24 0,14 11,25 25,25zm0 -9c-9,0 -15,-6 -15,-16 0,-9 6,-15 15,-15 9,0 15,6 15,15 0,10 -6,16 -15,16zm33 8l10 0 0 -17 8 0c10,0 17,-6 17,-15 0,-9 -7,-15 -17,-15l-18 0 0 47zm10 -25l0 -14 8 0c5,0 8,3 8,7 0,4 -3,7 -8,7l-8 0zm60 -22l0 21c-3,1 -5,1 -8,1 -8,0 -11,-3 -11,-10l0 -12 -10 0 0 13c0,12 7,18 19,18 4,0 7,0 10,-1l0 17 10 0 0 -47 -10 0zm21 47l32 0 0 -9 -23 0 0 -12 17 0 0 -8 -17 0 0 -10 23 0 0 -8 -32 0 0 47zm62 1c9,0 17,-5 21,-12l-7 -5c-3,5 -8,8 -14,8 -9,0 -15,-6 -15,-16 0,-9 6,-15 15,-15 6,0 11,3 14,8l7 -5c-4,-8 -12,-12 -21,-12 -14,0 -25,10 -25,24 0,14 11,25 25,25zm70 -1l-20 -25 18 -22 -12 0 -18 22 0 -22 -9 0 0 47 9 0 0 -25 21 25 11 0zm44 -48l-27 30 0 -29 -10 0 0 48 3 0 28 -30 0 29 10 0 0 -48 -4 0zm36 -4c7,0 13,-5 13,-12l0 -1 -8 0 0 1c0,3 -2,5 -5,5 -3,0 -5,-2 -5,-5l0 -1 -7 0 0 1c0,7 5,12 12,12zm16 4l-28 30 0 -29 -10 0 0 48 4 0 27 -30 0 29 10 0 0 -48 -3 0z"/>
   <path class="fil0" d="M925 466l9 0 0 -19 -6 0 0 -38 -10 0 0 38 -19 0 0 -38 -10 0 0 47 36 0 0 10zm17 -10l32 0 0 -9 -23 0 0 -12 17 0 0 -8 -17 0 0 -9 23 0 0 -9 -32 0 0 47zm41 0l10 0 0 -20 21 0 0 20 9 0 0 -47 -9 0 0 18 -21 0 0 -18 -10 0 0 47zm62 0l10 0 0 -38 15 0 0 -9 -40 0 0 9 15 0 0 38zm31 0l10 0 0 -17 8 0c10,0 17,-6 17,-15 0,-9 -7,-15 -17,-15l-18 0 0 47zm10 -25l0 -14 8 0c5,0 7,3 7,7 0,4 -2,7 -7,7l-8 0z"/>
  </g>
 </g>
</svg>
