<?xml version="1.0" encoding="utf-8"?>
<svg xmlns="http://www.w3.org/2000/svg" xml:space="preserve" width="384.6" height="64.6" x="0" y="0" style="enable-background:new 0 0 384.6 64.6;" version="1.1" viewBox="0 0 384.6 64.6">
  <path fill="#1D1D1B" d="M99.3 26.1c-2.1 0-4 .3-5.9.8s-3.4 1.3-4.8 2.3l2.3 4.3c.9-.8 2.1-1.4 3.5-1.8 1.4-.4 2.8-.7 4.2-.7 2.1 0 3.6.5 4.7 1.4 1 .9 1.6 2.3 1.6 4v.4h-6.5c-3.6 0-6.2.7-7.9 2a6.63 6.63 0 0 0-2.5 5.4c0 1.4.4 2.7 1.1 3.9.8 1.1 1.9 2 3.3 2.7 1.4.6 3.1 1 4.9 1s3.5-.3 4.8-.9c1.3-.6 2.4-1.4 3.1-2.5v3.1h5.5V36.8c0-3.6-1-6.2-2.9-8-2-1.8-4.8-2.7-8.5-2.7zm5.5 17.6c-.5 1.3-1.3 2.2-2.4 2.9s-2.5 1-3.9 1-2.7-.3-3.5-.9c-.9-.6-1.3-1.5-1.3-2.5 0-2.2 1.7-3.3 5.1-3.3h6.1l-.1 2.8zm27.9-5.8c-1.3-.4-2.9-.8-4.9-1.1-2-.3-3.5-.7-4.4-1.1-1-.4-1.4-1.1-1.4-2 0-.9.5-1.5 1.3-2 .9-.5 2.2-.8 3.9-.8 2.7 0 5.1.6 7.2 1.9l2.3-4.5c-1.1-.7-2.5-1.2-4.2-1.6s-3.5-.6-5.2-.6c-3.4 0-6.1.7-8.1 2.1-2 1.4-3 3.3-3 5.7 0 1.8.5 3.2 1.4 4.3 1 1 2.1 1.7 3.4 2.1 1.3.4 3 .8 5 1.1 2 .3 3.4.6 4.3 1s1.3 1 1.3 1.8c0 1.9-1.8 2.8-5.3 2.8-1.5 0-3.1-.2-4.7-.7-1.6-.5-2.9-1.1-4.1-1.8l-2.3 4.5c1.2.8 2.7 1.5 4.6 2s3.9.8 6 .8c3.5 0 6.3-.7 8.3-2.1s3-3.3 3-5.6c0-1.8-.5-3.2-1.4-4.1-.7-1-1.8-1.7-3-2.1zm19.9 9.1c-1.1 0-2-.3-2.6-1-.6-.6-.9-1.6-.9-2.8V31.3h6.7v-4.7h-6.7v-5.7h-5.9v5.7h-4.1v4.7h4.1v12.1c0 2.8.8 4.9 2.3 6.3 1.5 1.4 3.6 2.2 6.4 2.2 1.1 0 2.1-.1 3.1-.4s1.8-.7 2.5-1.3l-1.6-4.2c-.9.7-2 1-3.3 1zM179 27.8c-1.9-1.1-4.1-1.6-6.6-1.6s-4.7.5-6.7 1.6-3.5 2.6-4.6 4.6c-1.1 2-1.7 4.2-1.7 6.6s.6 4.7 1.7 6.6c1.1 2 2.8 3.5 4.9 4.6 2.1 1.1 4.5 1.6 7.3 1.6 2.2 0 4.1-.3 5.8-1 1.7-.7 3.1-1.7 4.3-3l-3.1-3.6a9.27 9.27 0 0 1-6.8 2.7c-2.2 0-4-.5-5.4-1.6s-2.4-2.5-2.7-4.4H185c.1-.8.1-1.3.1-1.7 0-2.6-.5-4.8-1.6-6.8s-2.6-3.5-4.5-4.6zm-13.7 9.1c.3-1.9 1.1-3.3 2.4-4.4 1.3-1.1 2.9-1.7 4.8-1.7s3.5.6 4.8 1.7c1.3 1.1 2 2.6 2.3 4.4h-14.3zm31-6.8v-3.7h-5.6v25.1h5.9V39.3c0-2.5.6-4.4 1.9-5.8 1.3-1.3 3.1-2 5.4-2 .4 0 .9 0 1.4.1V26c-4.3.1-7.3 1.5-9 4.1zM76.1 18.7h-2.8l-9.9 24.9-10-24.9h-8v32.7h6.1V40.9l-.6-14.7 10.3 25.2h4.3l10.3-25.2-.6 14.7v10.5h6.2V18.7h-2.6z"/>
  <path fill="#49A4DC" d="M245.7 16.6h5.9v34.9h-5.9zm23.2 9.5c-2.1 0-4 .3-5.9.8s-3.4 1.3-4.8 2.3l2.3 4.3c.9-.8 2.1-1.4 3.5-1.8 1.4-.4 2.8-.7 4.2-.7 2.1 0 3.6.5 4.7 1.4 1 .9 1.6 2.3 1.6 4v.4H268c-3.6 0-6.2.7-7.9 2a6.63 6.63 0 0 0-2.5 5.4c0 1.4.4 2.7 1.1 3.9.8 1.1 1.9 2 3.3 2.7 1.4.6 3.1 1 4.9 1s3.5-.3 4.8-.9c1.3-.6 2.4-1.4 3.1-2.5v3.1h5.5V36.8c0-3.6-1-6.2-2.9-8-2-1.8-4.8-2.7-8.5-2.7zm5.6 17.6c-.5 1.3-1.3 2.2-2.4 2.9s-2.5 1-3.9 1-2.7-.3-3.5-.9c-.9-.6-1.3-1.5-1.3-2.5 0-2.2 1.7-3.3 5.1-3.3h6.1l-.1 2.8zm27.8-5.8c-1.3-.4-2.9-.8-4.9-1.1-2-.3-3.5-.7-4.4-1.1-1-.4-1.4-1.1-1.4-2 0-.9.5-1.5 1.3-2 .9-.5 2.2-.8 3.9-.8 2.7 0 5.1.6 7.2 1.9l2.3-4.5c-1.1-.7-2.5-1.2-4.2-1.6s-3.5-.6-5.2-.6c-3.4 0-6.1.7-8.1 2.1-2 1.4-3 3.3-3 5.7 0 1.8.5 3.2 1.4 4.3 1 1 2.1 1.7 3.4 2.1s3 .8 5 1.1c2 .3 3.4.6 4.3 1s1.3 1 1.3 1.8c0 1.9-1.8 2.8-5.3 2.8-1.5 0-3.1-.2-4.7-.7-1.6-.5-2.9-1.1-4.1-1.8L285 49c1.2.8 2.7 1.5 4.7 2s3.9.8 6 .8c3.5 0 6.3-.7 8.3-2.1s3-3.3 3-5.6c0-1.8-.5-3.2-1.4-4.1-1-1-2.1-1.7-3.3-2.1zm24.2 0c-1.3-.4-2.9-.8-4.9-1.1-2-.3-3.5-.7-4.4-1.1-1-.4-1.4-1.1-1.4-2 0-.9.5-1.5 1.3-2 .9-.5 2.2-.8 3.9-.8 2.7 0 5.1.6 7.2 1.9l2.3-4.5c-1.1-.7-2.5-1.2-4.2-1.6s-3.5-.6-5.2-.6c-3.4 0-6.1.7-8.1 2.1-2 1.4-3 3.3-3 5.7 0 1.8.5 3.2 1.4 4.3 1 1 2.1 1.7 3.4 2.1s3 .8 5 1.1c2 .3 3.4.6 4.3 1s1.3 1 1.3 1.8c0 1.9-1.8 2.8-5.3 2.8-1.5 0-3.1-.2-4.7-.7-1.6-.5-2.9-1.1-4.1-1.8L309 49c1.2.8 2.7 1.5 4.7 2s3.9.8 6 .8c3.5 0 6.3-.7 8.3-2.1s3-3.3 3-5.6c0-1.8-.5-3.2-1.4-4.1-.7-1-1.9-1.7-3.1-2.1zm27.2-10.1c-1.9-1.1-4.1-1.6-6.6-1.6s-4.7.5-6.7 1.6-3.5 2.6-4.6 4.6-1.7 4.2-1.7 6.6.6 4.7 1.7 6.6c1.1 2 2.8 3.5 4.9 4.6 2.1 1.1 4.5 1.6 7.3 1.6 2.2 0 4.1-.3 5.8-1 1.7-.7 3.2-1.7 4.3-3l-3.2-3.6a9.27 9.27 0 0 1-6.8 2.7c-2.2 0-4-.5-5.4-1.6s-2.4-2.5-2.7-4.4h19.7c.1-.8.1-1.3.1-1.7 0-2.6-.5-4.8-1.6-6.8s-2.6-3.5-4.5-4.6zM340 36.9c.3-1.9 1.1-3.3 2.4-4.4 1.3-1.1 2.9-1.7 4.8-1.7s3.5.6 4.8 1.7c1.3 1.1 2 2.6 2.3 4.4H340zm43.2 3.1c-.9-1-2-1.7-3.3-2.1-1.3-.4-2.9-.8-4.9-1.1-2-.3-3.5-.7-4.4-1.1-1-.4-1.4-1.1-1.4-2 0-.9.5-1.5 1.3-2 .9-.5 2.2-.8 3.9-.8 2.7 0 5.1.6 7.2 1.9l2.3-4.5c-1.1-.7-2.5-1.2-4.2-1.6s-3.5-.6-5.2-.6c-3.4 0-6.1.7-8.1 2.1-2 1.4-3 3.3-3 5.7 0 1.8.5 3.2 1.4 4.3 1 1 2.1 1.7 3.4 2.1s3 .8 5 1.1c2 .3 3.4.6 4.3 1s1.3 1 1.3 1.8c0 1.9-1.8 2.8-5.3 2.8-1.5 0-3.1-.2-4.7-.7-1.6-.5-2.9-1.1-4.1-1.8l-2.3 4.5c1.2.8 2.7 1.5 4.7 2s3.9.8 6 .8c3.5 0 6.3-.7 8.3-2.1s3-3.3 3-5.6c.2-1.8-.3-3.2-1.2-4.1zM216.7 29.4c.1-.6.4-1 .5-1.4.2-.4.6-1.2 1.3-2 .2-.2 1-1.1 2.3-1.7.6-.3 1.8-.8 4.5-.8 2.2 0 4.6-.1 7.5 1.2 1.1.5 2.8 1.4 4.5 3 1.2-1.1 2.4-2.3 3.7-3.5-.8-.9-2-2.2-3.7-3.3-2.5-1.6-4.7-2-6-2.3-1.8-.4-3.1-.4-5-.4-2.1 0-3.9 0-6.1.5-1.8.4-4 .9-5.9 2.6-.9.8-1.6 1.8-1.7 1.9-.4.6-.9 1.4-1.4 2.5-.3.7-.5 1.4-.6 2.3-.2 1.4-.1 1.8-.1 6.1v7.2c.2 1.6.9 3.3.9 3.4.3.7.6 1.2.8 1.5a10.37 10.37 0 0 0 3.6 3.5c.8.5 1.5.8 1.7.9.4.1 1.5.6 3.1.9.4.1.8.1 2.3.1 2 .1 3.6 0 6.5-.1.4 0 1 0 1.9-.1.4-.1 1-.2 1.8-.4 1-.3 2.6-.7 4.4-1.7.9-.5 2.1-1.3 3.4-2.5v-12h-14.2v4.5h8.4V44c-.8.5-2 1-3.4 1.5-.5.1-2.6.8-5.6.8-1.4 0-2.8 0-4.3-.6-1-.4-1.6-.9-1.9-1-.2-.1-1-.8-1.8-1.9l-.6-1c-.6-1.2-.6-2.4-.7-4.3v-6.1c-.2-1.2-.1-1.6-.1-2zM72.2 4.4c-1.7-.6-6-2.2-12.2-3.2C55.5.4 50.3-.1 43.4 0 27.5.4 8.6 4.1 1 5.8c-1.4 4.7-1.4 10.8.1 16.6.4 1.5 1.7 3.3 3 4.9.8 1 1.6 2 2.2 3 3.2 5.6 4.6 9.8 5.9 13.6 1.5 4.7 2.8 8.4 7 12.5.8.8 3.9 3.7 9.1 5.8 4 1.6 7.1 1.9 12.6 2.3.6 0 1.3 0 1.9.1 6.3.2 11.1-.1 12.9-.5 1-.2 1.9-.5 1.9-.5 1.2-.3 2.2-.7 3-1-.4-.9-.7-1.8-1.1-2.7-.6.2-1.5.4-2.6.6-.1 0-1.8.4-3.7.5-5.6.6-11.4 0-11.4 0-3.1-.3-5.1-.5-7.7-1.3-3.7-1.1-6.5-2.6-7.5-3.3-7.6-4.7-9.8-15.6-10.9-22-1.3-7.8-3.1-15 1-20.5 2.9-3.9 7.1-5 14.2-6.9 7.7-2 13.5-1.9 21.8-1.8 12.9.2 19.2 2.3 22.8 3.8 1.3.5 2.3 1 3 1.3L80 7.9c-2-1-4.6-2.3-7.8-3.5zm-60.4 7.4c0 .5-.4 1-1 1H5.6a1 1 0 0 1-1-1v-1.5c0-.5.4-1 1-1h5.1c.6 0 1 .5 1 1v1.5z"/>
</svg>
