<svg width="216" height="40" viewBox="0 0 216 40" fill="none" xmlns="http://www.w3.org/2000/svg">
<path d="M146.042 33.1888H144.293C144.179 33.1888 144.127 33.1888 144.031 33.408L141.407 38.5724V33.3115C141.41 33.2863 141.407 33.2608 141.399 33.2369C141.39 33.2129 141.377 33.191 141.36 33.1726C141.342 33.1543 141.321 33.14 141.298 33.1306C141.274 33.1213 141.249 33.1172 141.224 33.1186H140.2C140.175 33.1186 140.151 33.1236 140.128 33.1334C140.105 33.1432 140.084 33.1576 140.067 33.1756C140.05 33.1936 140.037 33.215 140.028 33.2384C140.019 33.2617 140.016 33.2866 140.017 33.3115V39.5807C140.016 39.6056 140.019 39.6305 140.028 39.6539C140.037 39.6772 140.05 39.6986 140.067 39.7166C140.084 39.7346 140.105 39.749 140.128 39.7588C140.151 39.7686 140.175 39.7736 140.2 39.7736H142.028C142.15 39.7736 142.203 39.7736 142.299 39.5632L144.844 34.5127L144.791 39.607C144.79 39.6319 144.794 39.6568 144.803 39.6802C144.812 39.7035 144.825 39.7249 144.842 39.7429C144.859 39.7609 144.88 39.7753 144.903 39.7851C144.926 39.7949 144.95 39.7999 144.975 39.7999H146.042C146.067 39.8013 146.092 39.7972 146.116 39.7879C146.139 39.7785 146.161 39.7642 146.178 39.7459C146.196 39.7276 146.209 39.7056 146.217 39.6817C146.225 39.6577 146.228 39.6322 146.226 39.607V33.3817C146.228 33.3564 146.225 33.331 146.217 33.307C146.209 33.283 146.196 33.2611 146.178 33.2428C146.161 33.2244 146.139 33.2101 146.116 33.2008C146.092 33.1915 146.067 33.1874 146.042 33.1888ZM131.622 33.1888H129.873C129.75 33.1888 129.698 33.1888 129.601 33.408L126.978 38.5724V33.3115C126.979 33.2859 126.975 33.2602 126.966 33.2362C126.957 33.2123 126.943 33.1905 126.924 33.1723C126.906 33.1542 126.885 33.14 126.861 33.1307C126.837 33.1215 126.811 33.1174 126.786 33.1186H125.754C125.728 33.1174 125.703 33.1215 125.679 33.1307C125.655 33.14 125.633 33.1542 125.615 33.1723C125.597 33.1905 125.583 33.2123 125.573 33.2362C125.564 33.2602 125.56 33.2859 125.561 33.3115V39.5807C125.56 39.6064 125.564 39.632 125.573 39.656C125.583 39.6799 125.597 39.7017 125.615 39.7199C125.633 39.7381 125.655 39.7522 125.679 39.7615C125.703 39.7707 125.728 39.7749 125.754 39.7736H127.581C127.695 39.7736 127.748 39.7736 127.844 39.5632L130.389 34.5127L130.336 39.607C130.335 39.6327 130.339 39.6583 130.348 39.6823C130.357 39.7062 130.371 39.728 130.39 39.7462C130.408 39.7644 130.429 39.7785 130.453 39.7878C130.477 39.797 130.503 39.8012 130.528 39.7999H131.569C131.595 39.8012 131.62 39.797 131.644 39.7878C131.668 39.7785 131.69 39.7644 131.708 39.7462C131.726 39.728 131.74 39.7062 131.749 39.6823C131.759 39.6583 131.763 39.6327 131.761 39.607V33.3817C131.765 33.3381 131.753 33.2948 131.727 33.2594C131.701 33.2241 131.664 33.199 131.622 33.1888ZM107.643 40.0016C104.932 40.0016 104.591 38.4672 104.591 36.5645C104.591 34.6618 104.932 33.1098 107.643 33.1098C110.354 33.1098 110.677 34.6443 110.677 36.5645C110.677 38.4847 110.354 40.0016 107.643 40.0016ZM107.643 34.1357C106.121 34.1357 106.06 35.0125 106.06 36.5645C106.06 38.1164 106.121 38.9757 107.643 38.9757C109.165 38.9757 109.217 38.0989 109.217 36.5645C109.217 35.0301 109.156 34.1357 107.643 34.1357ZM124.32 33.1888H119.186C119.161 33.1875 119.135 33.1916 119.111 33.2009C119.087 33.2101 119.066 33.2243 119.047 33.2425C119.029 33.2606 119.015 33.2824 119.006 33.3064C118.997 33.3304 118.993 33.356 118.994 33.3817V34.1971C118.992 34.2224 118.997 34.2477 119.006 34.2713C119.015 34.2948 119.029 34.3161 119.048 34.3336C119.066 34.3511 119.088 34.3644 119.112 34.3727C119.136 34.3809 119.161 34.3838 119.186 34.3812H121.049V39.6421C121.046 39.6673 121.049 39.6928 121.057 39.7167C121.066 39.7407 121.079 39.7626 121.096 39.781C121.114 39.7993 121.135 39.8136 121.159 39.8229C121.182 39.8323 121.207 39.8364 121.233 39.835H122.273C122.298 39.8364 122.324 39.8323 122.347 39.8229C122.371 39.8136 122.392 39.7993 122.409 39.781C122.427 39.7626 122.44 39.7407 122.448 39.7167C122.457 39.6928 122.459 39.6673 122.457 39.6421V34.3812H124.311C124.336 34.384 124.361 34.3812 124.384 34.3729C124.408 34.3646 124.429 34.3512 124.447 34.3335C124.464 34.3158 124.478 34.2943 124.486 34.2707C124.494 34.2471 124.497 34.2219 124.494 34.1971V33.3904C124.498 33.3653 124.497 33.3396 124.489 33.3152C124.482 33.2908 124.47 33.2682 124.453 33.249C124.437 33.2299 124.416 33.2145 124.393 33.2041C124.37 33.1937 124.345 33.1885 124.32 33.1888ZM117.743 33.1888H112.173C112.148 33.1887 112.123 33.1938 112.1 33.2036C112.078 33.2134 112.057 33.2277 112.04 33.2458C112.023 33.2638 112.009 33.2851 112.001 33.3085C111.992 33.3319 111.988 33.3568 111.989 33.3817V39.6508C111.988 39.6758 111.992 39.7006 112.001 39.724C112.009 39.7474 112.023 39.7687 112.04 39.7867C112.057 39.8048 112.078 39.8191 112.1 39.8289C112.123 39.8387 112.148 39.8438 112.173 39.8437H113.213C113.239 39.845 113.265 39.8409 113.289 39.8316C113.312 39.8224 113.334 39.8082 113.352 39.79C113.37 39.7719 113.385 39.7501 113.394 39.7261C113.403 39.7021 113.407 39.6765 113.406 39.6508V34.39H116.528V39.6508C116.525 39.6761 116.528 39.7015 116.536 39.7255C116.545 39.7495 116.558 39.7714 116.575 39.7897C116.593 39.8081 116.614 39.8224 116.637 39.8317C116.661 39.841 116.686 39.8451 116.711 39.8437H117.761C117.786 39.8451 117.811 39.841 117.835 39.8317C117.858 39.8224 117.88 39.8081 117.897 39.7897C117.914 39.7714 117.928 39.7495 117.936 39.7255C117.944 39.7015 117.947 39.6761 117.944 39.6508V33.3817C117.947 33.3548 117.944 33.3276 117.935 33.3022C117.926 33.2768 117.911 33.2539 117.892 33.2352C117.872 33.2166 117.849 33.2027 117.823 33.1946C117.797 33.1865 117.77 33.1845 117.743 33.1888ZM138.757 39.4579L136.012 36.3979L138.556 33.6622C138.836 33.3641 138.766 33.2326 138.469 33.2326H137.341C137.293 33.2311 137.246 33.2416 137.203 33.263C137.16 33.2844 137.123 33.3162 137.096 33.3554L134.813 35.828H134.674V33.3817C134.675 33.356 134.671 33.3304 134.661 33.3064C134.652 33.2824 134.638 33.2606 134.62 33.2425C134.602 33.2243 134.58 33.2101 134.556 33.2009C134.532 33.1916 134.507 33.1875 134.481 33.1888H133.441C133.415 33.1875 133.389 33.1916 133.365 33.2009C133.342 33.2101 133.32 33.2243 133.302 33.2425C133.284 33.2606 133.269 33.2824 133.26 33.3064C133.251 33.3304 133.247 33.356 133.248 33.3817V39.6508C133.247 39.6765 133.251 39.7021 133.26 39.7261C133.269 39.7501 133.284 39.7719 133.302 39.79C133.32 39.8082 133.342 39.8224 133.365 39.8316C133.389 39.8409 133.415 39.845 133.441 39.8437H134.481C134.507 39.845 134.532 39.8409 134.556 39.8316C134.58 39.8224 134.602 39.8082 134.62 39.79C134.638 39.7719 134.652 39.7501 134.661 39.7261C134.671 39.7021 134.675 39.6765 134.674 39.6508V37.0204H134.813L137.166 39.7473C137.198 39.7827 137.237 39.811 137.281 39.8306C137.324 39.8502 137.372 39.8607 137.419 39.8613H138.626C138.854 39.8437 138.994 39.6947 138.757 39.4579ZM92.4005 33.3203C92.3983 33.2915 92.3904 33.2634 92.3773 33.2376C92.3643 33.2118 92.3462 33.1889 92.3243 33.1702C92.3023 33.1515 92.2769 33.1372 92.2495 33.1284C92.222 33.1195 92.1931 33.1162 92.1644 33.1186H91.9108L91.4298 33.18C91.1325 33.18 91.0013 33.2326 91.0013 33.4167V35.9945H87.8444V33.3203C87.8422 33.2915 87.8343 33.2634 87.8212 33.2376C87.8082 33.2118 87.7901 33.1889 87.7682 33.1702C87.7462 33.1515 87.7208 33.1372 87.6934 33.1284C87.6659 33.1195 87.637 33.1162 87.6083 33.1186H87.3459L86.8737 33.18C86.5764 33.18 86.4364 33.2326 86.4364 33.4167V39.6508C86.4352 39.6765 86.4393 39.7021 86.4485 39.7261C86.4578 39.7501 86.4719 39.7719 86.49 39.79C86.5081 39.8082 86.5299 39.8224 86.5538 39.8316C86.5777 39.8409 86.6032 39.845 86.6288 39.8437H87.6695C87.6947 39.8451 87.72 39.841 87.7435 39.8317C87.767 39.8224 87.7882 39.8081 87.8056 39.7897C87.8231 39.7714 87.8364 39.7495 87.8446 39.7255C87.8528 39.7015 87.8557 39.6761 87.8531 39.6508V37.1782H90.9488V39.6508C90.9477 39.6758 90.9515 39.7006 90.9602 39.724C90.9689 39.7474 90.9823 39.7687 90.9994 39.7867C91.0166 39.8048 91.0373 39.8191 91.0601 39.8289C91.083 39.8387 91.1076 39.8438 91.1325 39.8437H92.1819C92.2068 39.8438 92.2314 39.8387 92.2542 39.8289C92.2771 39.8191 92.2978 39.8048 92.3149 39.7867C92.3321 39.7687 92.3454 39.7474 92.3541 39.724C92.3628 39.7006 92.3667 39.6758 92.3655 39.6508L92.4005 33.3203ZM69.0865 39.8262C68.5329 39.9518 67.9663 40.0107 67.3987 40.0016C66.1569 40.0016 64.4429 39.9051 64.4429 37.906C64.4429 36.2576 65.4136 36.1524 66.5155 35.9332L68.7892 35.5561V35.0739C68.7892 34.6969 68.7892 34.4163 68.4044 34.2672C68.0786 34.1866 67.7413 34.1629 67.4075 34.1971C66.667 34.2224 65.9326 34.3402 65.2212 34.5478H65.1338C65.0997 34.5488 65.0664 34.538 65.0393 34.5172C65.0123 34.4965 64.9931 34.467 64.9851 34.4338L64.8277 33.7499C64.8218 33.7038 64.8328 33.6572 64.8585 33.6185C64.8842 33.5798 64.9229 33.5518 64.9676 33.5395C65.8384 33.2746 66.7424 33.1358 67.6523 33.1274C68.2909 33.086 68.9301 33.2003 69.515 33.4606C69.7789 33.6292 69.987 33.8724 70.1131 34.1596C70.2392 34.4467 70.2775 34.7649 70.2233 35.0739V38.5811C70.2233 39.4579 69.961 39.6333 69.0865 39.8262ZM68.7892 36.5469L66.9177 36.8275C66.4018 36.9152 65.9208 36.9941 65.9208 37.8446C65.9208 38.9143 66.7953 38.9932 67.4687 38.9932C67.9253 38.9969 68.3798 38.9289 68.8154 38.7916L68.7892 36.5469ZM63.3935 39.4579C63.3935 39.5632 63.3323 39.5982 63.2536 39.6333C62.6012 39.8728 61.9108 39.9916 61.216 39.984C58.8199 39.984 58.1641 38.8617 58.1641 36.5469C58.1641 34.2322 58.8199 33.1098 61.216 33.1098C61.903 33.1012 62.5863 33.211 63.2361 33.4343C63.3148 33.4343 63.376 33.5044 63.376 33.6184C63.3809 33.6474 63.3809 33.6771 63.376 33.7061L63.2711 34.2672C63.2711 34.3725 63.1924 34.4075 63.105 34.4075H63.0175C62.5121 34.2544 61.9887 34.1689 61.4609 34.1533C60.0617 34.1533 59.6332 34.7582 59.6332 36.5557C59.6332 38.3532 60.0617 38.9494 61.4609 38.9494C62.0047 38.9349 62.5449 38.8555 63.07 38.7127C63.0925 38.7061 63.1163 38.7046 63.1395 38.7084C63.1627 38.7122 63.1847 38.7211 63.204 38.7346C63.2233 38.7481 63.2393 38.7657 63.2509 38.7861C63.2625 38.8066 63.2694 38.8294 63.2711 38.8529L63.376 39.379C63.385 39.4046 63.3908 39.431 63.3935 39.4579ZM82.064 40.0016C79.353 40.0016 79.0207 38.4672 79.0207 36.5645C79.0207 34.6618 79.353 33.1098 82.064 33.1098C84.7749 33.1098 85.0985 34.6443 85.0985 36.5645C85.0985 38.4847 84.7749 40.0016 82.064 40.0016ZM82.064 34.1357C80.5424 34.1357 80.4811 35.0125 80.4811 36.5645C80.4811 38.1164 80.5424 38.9757 82.064 38.9757C83.5856 38.9757 83.6381 38.0989 83.6381 36.5645C83.6381 35.0301 83.5769 34.1357 82.064 34.1357ZM100.962 33.3203C100.957 33.2637 100.931 33.211 100.889 33.1734C100.846 33.1358 100.791 33.1162 100.734 33.1186H100.472L99.9999 33.18C99.7113 33.18 99.5714 33.2326 99.5714 33.4167V39.6508C99.5701 39.6765 99.5742 39.7021 99.5835 39.7261C99.5927 39.7501 99.6068 39.7719 99.6249 39.79C99.643 39.8082 99.6648 39.8224 99.6887 39.8316C99.7126 39.8409 99.7381 39.845 99.7637 39.8437H100.804C100.83 39.8451 100.855 39.841 100.878 39.8317C100.902 39.8224 100.923 39.8081 100.941 39.7897C100.958 39.7714 100.971 39.7495 100.979 39.7255C100.988 39.7015 100.991 39.6761 100.988 39.6508L100.962 33.3203ZM96.3445 35.1879C95.9815 35.1969 95.6207 35.2469 95.2688 35.3369V33.3203C95.2666 33.2915 95.2588 33.2634 95.2457 33.2376C95.2326 33.2118 95.2146 33.1889 95.1926 33.1702C95.1707 33.1515 95.1453 33.1372 95.1178 33.1284C95.0904 33.1195 95.0615 33.1162 95.0327 33.1186H94.7791L94.3156 33.18C94.0183 33.18 93.8871 33.2326 93.8871 33.4167V39.6508C93.8846 39.6761 93.8875 39.7015 93.8957 39.7255C93.9039 39.7495 93.9172 39.7714 93.9346 39.7897C93.9521 39.8081 93.9733 39.8224 93.9968 39.8317C94.0203 39.841 94.0455 39.8451 94.0708 39.8437H96.1171C98.0672 39.8437 98.5919 39.0546 98.5919 37.5114C98.5744 35.8367 97.8573 35.1879 96.3445 35.1879ZM96.0646 38.8529H95.2688V36.319C95.5566 36.259 95.8494 36.2267 96.1433 36.2225C96.8342 36.2225 97.1665 36.5382 97.1665 37.5377C97.1665 38.7302 96.8079 38.8442 96.0646 38.8529ZM77.5166 33.1888H72.3833C72.3585 33.1887 72.3338 33.1938 72.311 33.2036C72.2881 33.2134 72.2675 33.2277 72.2503 33.2458C72.2331 33.2638 72.2198 33.2851 72.2111 33.3085C72.2024 33.3319 72.1985 33.3568 72.1997 33.3817V37.4501C72.218 37.5807 72.2096 37.7137 72.1751 37.841C72.1405 37.9683 72.0806 38.0872 71.9988 38.1905C71.917 38.2938 71.8151 38.3794 71.6993 38.442C71.5835 38.5047 71.4562 38.543 71.3252 38.5548H71.2115C71.1877 38.5577 71.1648 38.5658 71.1444 38.5783C71.124 38.5909 71.1066 38.6078 71.0933 38.6278C71.08 38.6478 71.0712 38.6704 71.0674 38.6941C71.0637 38.7179 71.0651 38.7421 71.0716 38.7653V38.8968L71.1765 39.5456V39.8262C71.1843 39.8603 71.203 39.8908 71.23 39.913C71.2569 39.9353 71.2904 39.9479 71.3252 39.949C71.3538 39.9568 71.384 39.9568 71.4126 39.949L71.5701 39.9051C72.1393 39.7977 72.6506 39.4872 73.0091 39.031C73.3676 38.5748 73.5492 38.0038 73.5202 37.4237V34.3725H76.2136V39.6333C76.2111 39.6585 76.214 39.684 76.2222 39.708C76.2304 39.7319 76.2436 39.7539 76.2611 39.7722C76.2785 39.7905 76.2998 39.8049 76.3233 39.8142C76.3468 39.8235 76.372 39.8276 76.3973 39.8262H77.4379C77.4635 39.8275 77.4891 39.8233 77.513 39.8141C77.5369 39.8048 77.5586 39.7907 77.5767 39.7725C77.5948 39.7543 77.609 39.7326 77.6182 39.7086C77.6274 39.6846 77.6315 39.659 77.6303 39.6333V33.3817C77.6351 33.3414 77.6266 33.3007 77.6061 33.2659C77.5855 33.231 77.5541 33.2039 77.5166 33.1888Z" fill="#0157B8"/>
<path d="M186.78 8.76562C186.46 8.76562 186.147 8.86076 185.881 9.039C185.615 9.21724 185.408 9.47057 185.285 9.76697C185.163 10.0634 185.131 10.3895 185.193 10.7042C185.256 11.0188 185.41 11.3079 185.636 11.5347C185.862 11.7616 186.151 11.9161 186.464 11.9786C186.778 12.0412 187.103 12.0091 187.399 11.8863C187.695 11.7636 187.947 11.5557 188.125 11.2889C188.303 11.0222 188.398 10.7085 188.398 10.3877C188.398 9.95751 188.227 9.54493 187.924 9.24073C187.621 8.93652 187.209 8.76562 186.78 8.76562ZM182.495 10.1159C182.175 10.1159 181.862 10.211 181.596 10.3893C181.33 10.5675 181.123 10.8209 181 11.1173C180.878 11.4137 180.846 11.7398 180.908 12.0545C180.971 12.3691 181.125 12.6581 181.351 12.885C181.577 13.1119 181.866 13.2663 182.179 13.3289C182.493 13.3915 182.818 13.3594 183.114 13.2366C183.41 13.1139 183.662 12.9059 183.84 12.6392C184.018 12.3724 184.113 12.0588 184.113 11.738C184.113 11.3078 183.942 10.8952 183.639 10.591C183.336 10.2868 182.924 10.1159 182.495 10.1159ZM179.854 13.7634C179.534 13.7634 179.221 13.8586 178.955 14.0368C178.689 14.215 178.482 14.4684 178.359 14.7648C178.237 15.0612 178.205 15.3873 178.267 15.702C178.33 16.0166 178.484 16.3057 178.71 16.5325C178.936 16.7594 179.225 16.9139 179.538 16.9765C179.852 17.039 180.177 17.0069 180.473 16.8841C180.769 16.7614 181.021 16.5535 181.199 16.2867C181.377 16.02 181.472 15.7063 181.472 15.3855C181.472 14.9553 181.301 14.5427 180.998 14.2385C180.695 13.9343 180.283 13.7634 179.854 13.7634ZM183.842 30.6858C183.465 30.6858 183.096 30.5737 182.783 30.3637C182.469 30.1537 182.225 29.8551 182.08 29.5059C181.936 29.1566 181.898 28.7723 181.972 28.4015C182.045 28.0307 182.227 27.6901 182.494 27.4228C182.76 27.1555 183.1 26.9734 183.47 26.8997C183.84 26.8259 184.223 26.8638 184.571 27.0084C184.92 27.1531 185.217 27.3981 185.427 27.7125C185.636 28.0268 185.748 28.3963 185.748 28.7744C185.748 29.0254 185.699 29.274 185.603 29.5059C185.507 29.7378 185.367 29.9485 185.19 30.126C185.013 30.3035 184.803 30.4443 184.571 30.5403C184.34 30.6364 184.092 30.6858 183.842 30.6858ZM172.753 28.0554C172.407 28.0554 172.069 27.9526 171.781 27.7599C171.494 27.5672 171.27 27.2933 171.137 26.9729C171.005 26.6524 170.97 26.2998 171.038 25.9597C171.105 25.6195 171.272 25.307 171.516 25.0618C171.761 24.8166 172.073 24.6495 172.412 24.5819C172.751 24.5142 173.103 24.5489 173.422 24.6817C173.742 24.8144 174.015 25.0392 174.207 25.3275C174.4 25.6159 174.502 25.955 174.502 26.3018C174.502 26.7669 174.318 27.2129 173.99 27.5418C173.662 27.8707 173.217 28.0554 172.753 28.0554ZM178.464 29.2391C178.086 29.2408 177.716 29.13 177.401 28.9206C177.086 28.7113 176.841 28.4128 176.695 28.0632C176.55 27.7136 176.511 27.3285 176.585 26.9569C176.658 26.5853 176.84 26.2439 177.107 25.9761C177.374 25.7082 177.714 25.526 178.085 25.4525C178.456 25.3791 178.84 25.4177 179.188 25.5634C179.537 25.7092 179.835 25.9555 180.044 26.2712C180.252 26.5869 180.363 26.9576 180.361 27.3364C180.361 27.841 180.161 28.325 179.805 28.6818C179.45 29.0386 178.967 29.2391 178.464 29.2391ZM186.78 26.5736C186.458 26.5753 186.142 26.4809 185.873 26.3024C185.604 26.1239 185.394 25.8693 185.27 25.5709C185.146 25.2725 185.113 24.9439 185.176 24.6267C185.238 24.3096 185.393 24.0182 185.621 23.7896C185.849 23.561 186.14 23.4055 186.456 23.3428C186.772 23.2802 187.1 23.3132 187.398 23.4377C187.695 23.5622 187.949 23.7726 188.127 24.0422C188.305 24.3117 188.4 24.6282 188.398 24.9515C188.398 25.1645 188.356 25.3755 188.275 25.5723C188.193 25.7691 188.074 25.9479 187.924 26.0985C187.774 26.2491 187.595 26.3686 187.399 26.4501C187.203 26.5316 186.992 26.5736 186.78 26.5736ZM182.495 25.1795C182.173 25.1812 181.858 25.087 181.589 24.9089C181.32 24.7308 181.11 24.4767 180.986 24.1788C180.862 23.881 180.828 23.5528 180.89 23.2359C180.952 22.9189 181.106 22.6275 181.333 22.3986C181.56 22.1696 181.85 22.0134 182.166 21.9498C182.481 21.8861 182.809 21.9179 183.107 22.0411C183.404 22.1642 183.659 22.3733 183.838 22.6417C184.017 22.91 184.113 23.2257 184.113 23.5486C184.114 23.7624 184.073 23.9742 183.992 24.1721C183.911 24.3699 183.792 24.5497 183.642 24.7013C183.492 24.8528 183.313 24.9731 183.116 25.0552C182.919 25.1372 182.708 25.1795 182.495 25.1795ZM179.854 21.5232C179.534 21.5232 179.221 21.4281 178.955 21.2498C178.689 21.0716 178.482 20.8182 178.359 20.5218C178.237 20.2254 178.205 19.8993 178.267 19.5846C178.33 19.27 178.484 18.981 178.71 18.7541C178.936 18.5272 179.225 18.3728 179.538 18.3102C179.852 18.2476 180.177 18.2797 180.473 18.4025C180.769 18.5252 181.021 18.7332 181.199 18.9999C181.377 19.2667 181.472 19.5803 181.472 19.9011C181.472 20.3313 181.301 20.7439 180.998 21.0481C180.695 21.3523 180.283 21.5232 179.854 21.5232ZM162.653 23.0225C162.398 23.0225 162.15 22.9469 161.939 22.8053C161.727 22.6637 161.562 22.4624 161.465 22.2269C161.368 21.9913 161.342 21.7322 161.392 21.4822C161.441 21.2321 161.564 21.0025 161.744 20.8222C161.923 20.642 162.153 20.5192 162.402 20.4695C162.651 20.4197 162.91 20.4453 163.145 20.5428C163.38 20.6404 163.58 20.8056 163.722 21.0175C163.863 21.2295 163.938 21.4787 163.938 21.7336C163.938 22.0755 163.803 22.4033 163.562 22.645C163.321 22.8867 162.994 23.0225 162.653 23.0225ZM167.148 25.5653C166.841 25.5653 166.542 25.4743 166.288 25.3037C166.033 25.1332 165.835 24.8908 165.718 24.6072C165.6 24.3236 165.57 24.0116 165.629 23.7106C165.689 23.4095 165.837 23.133 166.053 22.9159C166.27 22.6989 166.545 22.5511 166.846 22.4912C167.146 22.4313 167.457 22.462 167.74 22.5795C168.023 22.697 168.265 22.8959 168.435 23.1511C168.605 23.4063 168.695 23.7064 168.695 24.0133C168.695 24.4249 168.532 24.8197 168.242 25.1107C167.952 25.4018 167.558 25.5653 167.148 25.5653ZM191.065 10.1159C191.385 10.1176 191.697 10.2142 191.961 10.3935C192.226 10.5728 192.432 10.8268 192.553 11.1233C192.675 11.4199 192.705 11.7457 192.642 12.0598C192.579 12.3739 192.424 12.6621 192.197 12.8881C191.971 13.114 191.682 13.2677 191.369 13.3295C191.055 13.3914 190.73 13.3588 190.435 13.2358C190.14 13.1127 189.888 12.9048 189.711 12.6383C189.533 12.3717 189.438 12.0585 189.438 11.738C189.438 11.5242 189.481 11.3126 189.562 11.1152C189.644 10.9178 189.764 10.7386 189.915 10.5879C190.067 10.4372 190.246 10.3179 190.443 10.2369C190.641 10.1559 190.852 10.1148 191.065 10.1159ZM193.706 13.7634C194.026 13.7634 194.339 13.8586 194.605 14.0368C194.871 14.215 195.078 14.4684 195.201 14.7648C195.323 15.0612 195.355 15.3873 195.293 15.702C195.23 16.0166 195.076 16.3057 194.85 16.5325C194.624 16.7594 194.335 16.9139 194.022 16.9765C193.708 17.039 193.382 17.0069 193.087 16.8841C192.791 16.7614 192.539 16.5535 192.361 16.2867C192.183 16.02 192.088 15.7063 192.088 15.3855C192.088 14.9553 192.259 14.5427 192.562 14.2385C192.865 13.9343 193.277 13.7634 193.706 13.7634ZM189.71 30.6858C190.087 30.6876 190.456 30.5769 190.771 30.368C191.086 30.159 191.331 29.8611 191.477 29.512C191.623 29.1629 191.662 28.7783 191.589 28.4069C191.517 28.0355 191.336 27.6941 191.069 27.4259C190.803 27.1577 190.463 26.9748 190.093 26.9003C189.723 26.8259 189.34 26.8632 188.991 27.0076C188.642 27.152 188.344 27.397 188.134 27.7115C187.924 28.0261 187.812 28.396 187.812 28.7744C187.814 29.2791 188.015 29.7627 188.37 30.1204C188.725 30.4781 189.206 30.6812 189.71 30.6858ZM200.807 28.0554C201.153 28.0554 201.491 27.9526 201.779 27.7599C202.066 27.5672 202.29 27.2933 202.423 26.9729C202.555 26.6524 202.59 26.2998 202.522 25.9597C202.455 25.6195 202.288 25.307 202.044 25.0618C201.799 24.8166 201.487 24.6495 201.148 24.5819C200.809 24.5142 200.457 24.5489 200.138 24.6817C199.818 24.8144 199.545 25.0392 199.353 25.3275C199.16 25.6159 199.058 25.955 199.058 26.3018C199.058 26.7669 199.242 27.2129 199.57 27.5418C199.898 27.8707 200.343 28.0554 200.807 28.0554ZM195.096 29.2391C195.474 29.2391 195.843 29.1268 196.156 28.9163C196.47 28.7059 196.714 28.4069 196.859 28.0571C197.003 27.7073 197.04 27.3225 196.966 26.9515C196.891 26.5805 196.709 26.2399 196.441 25.973C196.174 25.706 195.833 25.5246 195.463 25.4519C195.093 25.3791 194.709 25.4182 194.361 25.5642C194.013 25.7103 193.715 25.9566 193.507 26.2721C193.299 26.5876 193.188 26.958 193.19 27.3364C193.19 27.587 193.239 27.8352 193.335 28.0666C193.431 28.298 193.572 28.5081 193.749 28.6849C193.926 28.8617 194.136 29.0017 194.368 29.0968C194.599 29.1919 194.846 29.2403 195.096 29.2391ZM191.065 25.1795C191.387 25.1795 191.701 25.0838 191.969 24.9046C192.236 24.7254 192.445 24.4707 192.568 24.1727C192.691 23.8747 192.723 23.5468 192.66 23.2304C192.598 22.9141 192.443 22.6235 192.215 22.3954C191.988 22.1673 191.698 22.012 191.382 21.9491C191.067 21.8862 190.74 21.9185 190.443 22.0419C190.145 22.1653 189.891 22.3744 189.713 22.6426C189.534 22.9107 189.438 23.2261 189.438 23.5486C189.437 23.7631 189.479 23.9757 189.56 24.1741C189.641 24.3725 189.761 24.5527 189.912 24.7044C190.064 24.8561 190.243 24.9762 190.441 25.0577C190.639 25.1392 190.851 25.1806 191.065 25.1795ZM193.706 21.5232C194.026 21.5232 194.339 21.4281 194.605 21.2498C194.871 21.0716 195.078 20.8182 195.201 20.5218C195.323 20.2254 195.355 19.8993 195.293 19.5846C195.23 19.27 195.076 18.981 194.85 18.7541C194.624 18.5272 194.335 18.3728 194.022 18.3102C193.708 18.2476 193.382 18.2797 193.087 18.4025C192.791 18.5252 192.539 18.7332 192.361 18.9999C192.183 19.2667 192.088 19.5803 192.088 19.9011C192.088 20.3313 192.259 20.7439 192.562 21.0481C192.865 21.3523 193.277 21.5232 193.706 21.5232ZM210.942 23.0225C211.197 23.0225 211.445 22.9469 211.656 22.8053C211.868 22.6637 212.033 22.4624 212.13 22.2269C212.227 21.9913 212.253 21.7322 212.203 21.4822C212.153 21.2321 212.031 21.0025 211.851 20.8222C211.671 20.642 211.442 20.5192 211.193 20.4695C210.944 20.4197 210.685 20.4453 210.45 20.5428C210.215 20.6404 210.015 20.8056 209.873 21.0175C209.732 21.2295 209.657 21.4787 209.657 21.7336C209.657 22.0755 209.792 22.4033 210.033 22.645C210.274 22.8867 210.601 23.0225 210.942 23.0225ZM206.377 25.5653C206.684 25.5653 206.983 25.4743 207.237 25.3037C207.492 25.1332 207.69 24.8908 207.807 24.6072C207.925 24.3236 207.955 24.0116 207.896 23.7106C207.836 23.4095 207.688 23.133 207.472 22.9159C207.255 22.6989 206.98 22.5511 206.679 22.4912C206.379 22.4313 206.068 22.462 205.785 22.5795C205.502 22.697 205.26 22.8959 205.09 23.1511C204.92 23.4063 204.83 23.7064 204.83 24.0133C204.83 24.4249 204.993 24.8197 205.283 25.1107C205.573 25.4018 205.967 25.5653 206.377 25.5653Z" fill="#E75C0E"/>
<path d="M175.292 15.8264C174.933 15.8264 174.581 15.9334 174.282 16.1338C173.983 16.3342 173.749 16.619 173.612 16.9523C173.474 17.2855 173.438 17.6522 173.508 18.006C173.579 18.3597 173.752 18.6847 174.006 18.9398C174.261 19.1948 174.585 19.3685 174.937 19.4389C175.29 19.5093 175.656 19.4731 175.988 19.3351C176.321 19.1971 176.605 18.9633 176.805 18.6634C177.005 18.3635 177.111 18.0109 177.111 17.6502C177.111 17.1665 176.92 16.7026 176.578 16.3606C176.237 16.0186 175.775 15.8264 175.292 15.8264ZM170.526 16.0632C170.213 16.0632 169.907 16.1562 169.647 16.3306C169.387 16.505 169.184 16.7529 169.064 17.0428C168.944 17.3328 168.913 17.6519 168.974 17.9598C169.035 18.2676 169.186 18.5504 169.407 18.7724C169.628 18.9943 169.91 19.1455 170.218 19.2067C170.525 19.2679 170.843 19.2365 171.132 19.1164C171.421 18.9963 171.668 18.7929 171.842 18.5319C172.016 18.2709 172.109 17.9641 172.109 17.6502C172.109 17.2293 171.942 16.8256 171.646 16.528C171.349 16.2304 170.946 16.0632 170.526 16.0632ZM162.49 16.4139C162.246 16.4139 162.007 16.4864 161.805 16.6222C161.602 16.7581 161.444 16.9512 161.351 17.1771C161.257 17.403 161.233 17.6515 161.28 17.8914C161.328 18.1312 161.445 18.3515 161.618 18.5244C161.79 18.6973 162.01 18.815 162.249 18.8627C162.488 18.9104 162.736 18.8859 162.962 18.7924C163.187 18.6988 163.379 18.5403 163.515 18.337C163.65 18.1337 163.723 17.8947 163.723 17.6502C163.723 17.3223 163.593 17.0078 163.362 16.776C163.13 16.5441 162.817 16.4139 162.49 16.4139ZM158.712 16.5016C158.485 16.5016 158.264 16.5689 158.075 16.6951C157.887 16.8213 157.74 17.0007 157.654 17.2106C157.567 17.4205 157.544 17.6514 157.588 17.8743C157.633 18.0971 157.742 18.3017 157.902 18.4624C158.062 18.623 158.266 18.7324 158.488 18.7767C158.711 18.821 158.941 18.7983 159.15 18.7114C159.36 18.6244 159.539 18.4772 159.664 18.2883C159.79 18.0994 159.857 17.8773 159.857 17.6502C159.857 17.3455 159.737 17.0534 159.522 16.838C159.307 16.6226 159.016 16.5016 158.712 16.5016ZM186.783 2.00276e-05C186.405 -0.00171359 186.036 0.109137 185.721 0.3185C185.406 0.527864 185.16 0.8263 185.015 1.17593C184.869 1.52555 184.831 1.9106 184.904 2.2822C184.978 2.6538 185.159 2.99519 185.426 3.26304C185.694 3.53088 186.034 3.71311 186.405 3.78658C186.775 3.86006 187.159 3.82146 187.508 3.67571C187.857 3.52995 188.154 3.2836 188.363 2.96792C188.572 2.65225 188.683 2.28148 188.681 1.90269C188.681 1.39807 188.481 0.914121 188.125 0.5573C187.769 0.20048 187.286 2.00276e-05 186.783 2.00276e-05ZM183.845 4.58573C183.467 4.58573 183.099 4.69806 182.785 4.90848C182.471 5.11891 182.227 5.41795 182.083 5.76773C181.939 6.11751 181.901 6.50229 181.976 6.87331C182.05 7.24433 182.232 7.5849 182.5 7.85187C182.767 8.11884 183.108 8.30019 183.478 8.37295C183.849 8.44571 184.232 8.4066 184.58 8.26058C184.929 8.11457 185.226 7.86821 185.434 7.55272C185.643 7.23724 185.753 6.86682 185.751 6.4884C185.751 6.2378 185.702 5.98967 185.606 5.75825C185.51 5.52683 185.37 5.31669 185.192 5.1399C185.015 4.9631 184.805 4.82314 184.574 4.72804C184.342 4.63294 184.095 4.58457 183.845 4.58573ZM172.756 7.25123C172.41 7.25123 172.072 7.35407 171.785 7.54676C171.497 7.73945 171.273 8.01333 171.14 8.33376C171.008 8.65419 170.973 9.00679 171.041 9.34696C171.108 9.68713 171.275 9.99959 171.52 10.2448C171.764 10.4901 172.076 10.6571 172.415 10.7248C172.754 10.7924 173.106 10.7577 173.426 10.625C173.745 10.4922 174.018 10.2675 174.211 9.9791C174.403 9.69072 174.505 9.35168 174.505 9.00484C174.505 8.53975 174.321 8.09372 173.993 7.76485C173.665 7.43598 173.22 7.25123 172.756 7.25123ZM171.121 11.7756C170.796 11.7756 170.478 11.8722 170.208 12.0534C169.937 12.2345 169.727 12.4919 169.602 12.7931C169.478 13.0943 169.445 13.4258 169.509 13.7455C169.572 14.0653 169.729 14.359 169.958 14.5896C170.188 14.8201 170.481 14.9771 170.8 15.0407C171.119 15.1043 171.45 15.0716 171.75 14.9469C172.051 14.8221 172.307 14.6108 172.488 14.3398C172.669 14.0687 172.765 13.75 172.765 13.424C172.765 12.9868 172.592 12.5675 172.283 12.2584C171.975 11.9492 171.557 11.7756 171.121 11.7756ZM168.559 4.76986C168.213 4.76986 167.875 4.87271 167.587 5.0654C167.299 5.25809 167.075 5.53196 166.943 5.85239C166.81 6.17283 166.776 6.52542 166.843 6.86559C166.911 7.20576 167.077 7.51822 167.322 7.76347C167.567 8.00872 167.878 8.17573 168.217 8.2434C168.557 8.31106 168.908 8.27633 169.228 8.14361C169.548 8.01088 169.821 7.78611 170.013 7.49773C170.205 7.20935 170.308 6.87031 170.308 6.52348C170.308 6.05839 170.123 5.61235 169.795 5.28348C169.467 4.95461 169.023 4.76986 168.559 4.76986ZM178.467 6.05C178.089 6.04826 177.72 6.15889 177.405 6.36786C177.091 6.57684 176.845 6.87475 176.699 7.22387C176.554 7.57298 176.515 7.95758 176.587 8.32894C176.66 8.7003 176.841 9.04171 177.107 9.3099C177.373 9.5781 177.713 9.76102 178.083 9.83549C178.453 9.90996 178.837 9.87262 179.185 9.72821C179.534 9.5838 179.833 9.33881 180.042 9.02429C180.252 8.70977 180.364 8.33986 180.364 7.96144C180.364 7.45601 180.165 6.97115 179.809 6.61294C179.453 6.25472 178.971 6.05232 178.467 6.05ZM176.184 10.7672C175.818 10.7672 175.459 10.8762 175.154 11.0805C174.849 11.2847 174.612 11.5751 174.471 11.9147C174.331 12.2544 174.294 12.6281 174.366 12.9887C174.438 13.3493 174.614 13.6805 174.873 13.9405C175.133 14.2004 175.463 14.3775 175.823 14.4492C176.182 14.5209 176.555 14.4841 176.894 14.3434C177.233 14.2027 177.522 13.9645 177.726 13.6588C177.929 13.3531 178.038 12.9937 178.038 12.6261C178.038 12.1331 177.843 11.6603 177.495 11.3117C177.148 10.9631 176.676 10.7672 176.184 10.7672ZM180.496 0.631322C180.118 0.631322 179.75 0.743426 179.436 0.953458C179.123 1.16349 178.879 1.46202 178.734 1.81129C178.59 2.16056 178.552 2.54488 178.626 2.91567C178.699 3.28645 178.881 3.62704 179.148 3.89436C179.414 4.16168 179.754 4.34373 180.124 4.41748C180.493 4.49123 180.877 4.45338 181.225 4.30871C181.573 4.16403 181.871 3.91904 182.081 3.60471C182.29 3.29037 182.402 2.92081 182.402 2.54276C182.402 2.03582 182.201 1.54964 181.844 1.19117C181.486 0.832706 181.001 0.631322 180.496 0.631322ZM174.392 2.29726C174.015 2.29726 173.646 2.40936 173.332 2.61939C173.019 2.82943 172.775 3.12795 172.63 3.47722C172.486 3.82649 172.448 4.21082 172.522 4.5816C172.595 4.95239 172.777 5.29297 173.044 5.56029C173.31 5.82761 173.65 6.00966 174.02 6.08342C174.389 6.15717 174.773 6.11932 175.121 5.97464C175.469 5.82997 175.767 5.58498 175.977 5.27064C176.186 4.95631 176.298 4.58675 176.298 4.2087C176.298 3.70175 176.097 3.21557 175.74 2.85711C175.382 2.49864 174.897 2.29726 174.392 2.29726ZM162.656 12.2753C162.402 12.2753 162.153 12.3509 161.942 12.4926C161.73 12.6342 161.566 12.8355 161.468 13.071C161.371 13.3065 161.345 13.5657 161.395 13.8157C161.445 14.0657 161.567 14.2954 161.747 14.4756C161.927 14.6559 162.156 14.7787 162.405 14.8284C162.654 14.8781 162.913 14.8526 163.148 14.755C163.383 14.6575 163.583 14.4923 163.725 14.2803C163.866 14.0684 163.941 13.8192 163.941 13.5642C163.941 13.2224 163.806 12.8946 163.565 12.6529C163.324 12.4111 162.997 12.2753 162.656 12.2753ZM166.434 14.1868C166.162 14.185 165.895 14.2643 165.669 14.4145C165.442 14.5647 165.264 14.7791 165.159 15.0305C165.054 15.2818 165.025 15.5589 165.077 15.8265C165.129 16.0941 165.259 16.3402 165.451 16.5336C165.643 16.727 165.887 16.859 166.154 16.9128C166.42 16.9667 166.697 16.9399 166.948 16.836C167.2 16.7321 167.415 16.5556 167.566 16.3291C167.717 16.1025 167.798 15.836 167.798 15.5634C167.798 15.1998 167.654 14.851 167.399 14.5931C167.143 14.3352 166.796 14.1891 166.434 14.1868ZM158.712 11.2582C158.485 11.2582 158.263 11.3258 158.075 11.4524C157.886 11.579 157.739 11.759 157.653 11.9694C157.566 12.1797 157.544 12.4111 157.589 12.6342C157.634 12.8572 157.744 13.0619 157.905 13.2222C158.066 13.3824 158.271 13.4911 158.494 13.5345C158.717 13.5778 158.947 13.5538 159.156 13.4655C159.366 13.3772 159.544 13.2286 159.669 13.0386C159.794 12.8486 159.859 12.6256 159.857 12.3981C159.857 12.2477 159.828 12.0987 159.77 11.9599C159.712 11.821 159.628 11.6949 159.521 11.589C159.415 11.483 159.289 11.3992 159.15 11.3425C159.011 11.2857 158.862 11.2571 158.712 11.2582ZM167.151 9.72383C166.845 9.72383 166.545 9.81485 166.291 9.98538C166.036 10.1559 165.838 10.3983 165.721 10.6819C165.604 10.9655 165.573 11.2775 165.633 11.5785C165.692 11.8796 165.84 12.1561 166.056 12.3732C166.273 12.5902 166.549 12.738 166.849 12.7979C167.149 12.8578 167.46 12.8271 167.743 12.7096C168.026 12.5921 168.268 12.3932 168.438 12.138C168.608 11.8828 168.699 11.5827 168.699 11.2758C168.699 10.8642 168.536 10.4694 168.245 10.1784C167.955 9.88733 167.561 9.72383 167.151 9.72383ZM163.277 7.78608C162.991 7.78608 162.712 7.87093 162.475 8.0299C162.238 8.18887 162.053 8.41482 161.944 8.67917C161.834 8.94353 161.806 9.23442 161.862 9.51506C161.917 9.7957 162.055 10.0535 162.256 10.2558C162.458 10.4581 162.715 10.5959 162.995 10.6517C163.275 10.7076 163.565 10.6789 163.829 10.5694C164.093 10.4599 164.318 10.2745 164.477 10.0366C164.635 9.79866 164.72 9.51895 164.72 9.23281C164.72 9.04282 164.682 8.8547 164.61 8.67917C164.537 8.50365 164.431 8.34416 164.297 8.20982C164.163 8.07548 164.004 7.96891 163.829 7.89621C163.654 7.8235 163.466 7.78608 163.277 7.78608ZM186.783 35.2916C186.408 35.2916 186.041 35.18 185.729 34.9709C185.417 34.7618 185.174 34.4647 185.03 34.117C184.886 33.7693 184.849 33.3868 184.922 33.0177C184.995 32.6486 185.176 32.3096 185.441 32.0435C185.707 31.7774 186.045 31.5962 186.413 31.5228C186.781 31.4494 187.163 31.487 187.509 31.631C187.856 31.7751 188.152 32.0189 188.361 32.3318C188.57 32.6447 188.681 33.0126 188.681 33.3889C188.681 33.8935 188.481 34.3775 188.125 34.7343C187.769 35.0911 187.286 35.2916 186.783 35.2916ZM171.121 23.516C170.796 23.5142 170.479 23.4153 170.21 23.2321C169.942 23.0489 169.734 22.7895 169.613 22.4872C169.492 22.1849 169.463 21.8533 169.531 21.5347C169.599 21.2161 169.759 20.925 169.993 20.6984C170.226 20.4718 170.522 20.3201 170.842 20.2625C171.161 20.205 171.491 20.2443 171.788 20.3754C172.086 20.5065 172.338 20.7235 172.512 20.9986C172.685 21.2737 172.774 21.5946 172.765 21.9202C172.765 22.1363 172.722 22.3502 172.64 22.5497C172.557 22.7492 172.436 22.9304 172.283 23.0827C172.13 23.2351 171.949 23.3557 171.749 23.4376C171.55 23.5195 171.336 23.561 171.121 23.5599V23.516ZM168.559 30.5217C168.213 30.5217 167.875 30.4189 167.587 30.2262C167.299 30.0335 167.075 29.7596 166.943 29.4392C166.81 29.1188 166.776 28.7662 166.843 28.426C166.911 28.0858 167.077 27.7734 167.322 27.5281C167.567 27.2829 167.878 27.1158 168.217 27.0482C168.557 26.9805 168.908 27.0152 169.228 27.148C169.548 27.2807 169.821 27.5055 170.013 27.7938C170.205 28.0822 170.308 28.4213 170.308 28.7681C170.308 29.2332 170.123 29.6792 169.795 30.0081C169.467 30.337 169.023 30.5217 168.559 30.5217ZM176.184 24.5507C175.817 24.5507 175.458 24.4414 175.153 24.2368C174.848 24.0321 174.611 23.7413 174.471 23.4011C174.331 23.061 174.294 22.6868 174.367 22.3259C174.439 21.9651 174.616 21.6339 174.876 21.3743C175.137 21.1147 175.468 20.9384 175.828 20.8676C176.188 20.7969 176.561 20.835 176.9 20.977C177.238 21.119 177.527 21.3587 177.73 21.6655C177.933 21.9723 178.04 22.3326 178.038 22.7006C178.036 23.1921 177.84 23.6626 177.492 24.0093C177.145 24.356 176.674 24.5507 176.184 24.5507ZM180.496 34.6603C180.118 34.6603 179.749 34.5479 179.436 34.3375C179.122 34.1271 178.877 33.828 178.733 33.4783C178.589 33.1285 178.552 32.7437 178.626 32.3727C178.701 32.0017 178.883 31.6611 179.151 31.3941C179.418 31.1271 179.759 30.9458 180.129 30.873C180.499 30.8003 180.883 30.8394 181.231 30.9854C181.579 31.1314 181.876 31.3778 182.085 31.6933C182.293 32.0088 182.404 32.3792 182.402 32.7576C182.402 33.0082 182.353 33.2563 182.257 33.4877C182.161 33.7192 182.02 33.9293 181.843 34.1061C181.666 34.2829 181.456 34.4229 181.224 34.518C180.993 34.6131 180.745 34.6614 180.496 34.6603ZM174.392 32.9943C174.014 32.9943 173.645 32.882 173.332 32.6716C173.018 32.4611 172.774 32.1621 172.629 31.8123C172.485 31.4625 172.448 31.0778 172.522 30.7067C172.597 30.3357 172.779 29.9952 173.047 29.7282C173.314 29.4612 173.655 29.2799 174.025 29.2071C174.395 29.1343 174.779 29.1734 175.127 29.3195C175.475 29.4655 175.773 29.7118 175.981 30.0273C176.189 30.3428 176.3 30.7132 176.298 31.0916C176.298 31.3422 176.249 31.5904 176.153 31.8218C176.057 32.0532 175.916 32.2634 175.739 32.4402C175.562 32.6169 175.352 32.7569 175.12 32.852C174.889 32.9471 174.642 32.9955 174.392 32.9943ZM166.434 21.1048C166.162 21.1065 165.895 21.0273 165.669 20.8771C165.442 20.7269 165.264 20.5125 165.159 20.2611C165.054 20.0097 165.025 19.7327 165.077 19.4651C165.129 19.1975 165.259 18.9514 165.451 18.758C165.643 18.5646 165.887 18.4326 166.154 18.3787C166.42 18.3249 166.697 18.3517 166.948 18.4556C167.2 18.5595 167.415 18.736 167.566 18.9625C167.717 19.1891 167.798 19.4556 167.798 19.7282C167.798 20.0918 167.654 20.4406 167.399 20.6985C167.143 20.9564 166.796 21.1025 166.434 21.1048ZM158.712 24.0421C158.485 24.0421 158.264 23.9747 158.075 23.8485C157.887 23.7223 157.74 23.5429 157.654 23.333C157.567 23.1232 157.544 22.8922 157.588 22.6694C157.633 22.4466 157.742 22.2419 157.902 22.0813C158.062 21.9207 158.266 21.8113 158.488 21.7669C158.711 21.7226 158.941 21.7454 159.15 21.8323C159.36 21.9192 159.539 22.0665 159.664 22.2554C159.79 22.4442 159.857 22.6663 159.857 22.8935C159.857 23.1981 159.737 23.4903 159.522 23.7057C159.307 23.9211 159.016 24.0421 158.712 24.0421ZM163.277 27.5143C162.989 27.516 162.708 27.4321 162.468 27.2732C162.228 27.1144 162.041 26.8877 161.929 26.6219C161.818 26.3561 161.788 26.0631 161.843 25.7802C161.898 25.4973 162.036 25.2371 162.238 25.0327C162.441 24.8283 162.7 24.6888 162.982 24.6319C163.263 24.575 163.556 24.6033 163.822 24.7132C164.087 24.8231 164.315 25.0097 164.474 25.2492C164.634 25.4888 164.72 25.7705 164.72 26.0588C164.721 26.2495 164.684 26.4386 164.612 26.6151C164.54 26.7916 164.434 26.9522 164.3 27.0874C164.166 27.2227 164.007 27.3301 163.831 27.4033C163.655 27.4766 163.467 27.5143 163.277 27.5143ZM198.274 15.8264C198.634 15.8247 198.987 15.9302 199.287 16.1295C199.587 16.3288 199.822 16.6131 199.961 16.9462C200.1 17.2792 200.137 17.6462 200.068 18.0006C199.999 18.3549 199.826 18.6807 199.572 18.9366C199.318 19.1926 198.994 19.3671 198.641 19.4382C198.288 19.5093 197.922 19.4737 197.589 19.3359C197.256 19.1982 196.971 18.9644 196.771 18.6643C196.571 18.3642 196.464 18.0113 196.464 17.6502C196.464 17.168 196.654 16.7054 196.993 16.3637C197.333 16.0219 197.793 15.8287 198.274 15.8264ZM203.04 16.0632C203.353 16.0632 203.659 16.1562 203.919 16.3306C204.18 16.505 204.383 16.7529 204.502 17.0428C204.622 17.3328 204.654 17.6519 204.592 17.9598C204.531 18.2676 204.381 18.5504 204.159 18.7724C203.938 18.9943 203.656 19.1455 203.349 19.2067C203.042 19.2679 202.724 19.2365 202.434 19.1164C202.145 18.9963 201.898 18.7929 201.724 18.5319C201.55 18.2709 201.457 17.9641 201.457 17.6502C201.457 17.2293 201.624 16.8256 201.921 16.528C202.218 16.2304 202.62 16.0632 203.04 16.0632ZM211.077 16.4139C211.322 16.4069 211.564 16.4734 211.771 16.605C211.978 16.7365 212.142 16.9271 212.24 17.1523C212.339 17.3775 212.369 17.6271 212.325 17.8691C212.281 18.1112 212.167 18.3348 211.996 18.5112C211.825 18.6876 211.605 18.8089 211.365 18.8595C211.125 18.9101 210.876 18.8878 210.648 18.7953C210.421 18.7029 210.226 18.5445 210.089 18.3405C209.952 18.1365 209.879 17.8962 209.879 17.6502C209.879 17.3223 210.008 17.0078 210.24 16.776C210.471 16.5441 210.785 16.4139 211.112 16.4139H211.077ZM214.854 16.5016C215.081 16.5016 215.302 16.5689 215.491 16.6951C215.679 16.8213 215.826 17.0007 215.913 17.2106C216 17.4205 216.022 17.6514 215.978 17.8743C215.934 18.0971 215.825 18.3017 215.664 18.4624C215.504 18.623 215.3 18.7324 215.078 18.7767C214.856 18.821 214.625 18.7983 214.416 18.7114C214.207 18.6244 214.028 18.4772 213.902 18.2883C213.776 18.0994 213.709 17.8773 213.709 17.6502C213.709 17.3455 213.83 17.0534 214.044 16.838C214.259 16.6226 214.551 16.5016 214.854 16.5016ZM189.713 4.58573C190.091 4.58399 190.46 4.69485 190.775 4.90421C191.09 5.11357 191.336 5.41201 191.481 5.76163C191.626 6.11126 191.665 6.49631 191.592 6.86791C191.518 7.23951 191.337 7.5809 191.069 7.84874C190.802 8.11659 190.462 8.29882 190.091 8.37229C189.721 8.44576 189.337 8.40717 188.988 8.26141C188.639 8.11566 188.342 7.8693 188.133 7.55363C187.924 7.23795 187.813 6.86719 187.815 6.4884C187.817 5.98449 188.018 5.50188 188.373 5.14556C188.729 4.78924 189.21 4.58803 189.713 4.58573ZM200.81 7.25123C201.156 7.25123 201.494 7.35407 201.782 7.54676C202.069 7.73945 202.294 8.01333 202.426 8.33376C202.558 8.65419 202.593 9.00679 202.525 9.34696C202.458 9.68713 202.291 9.99959 202.047 10.2448C201.802 10.4901 201.491 10.6571 201.151 10.7248C200.812 10.7924 200.46 10.7577 200.141 10.625C199.821 10.4922 199.548 10.2675 199.356 9.9791C199.164 9.69072 199.061 9.35168 199.061 9.00484C199.061 8.53975 199.245 8.09372 199.573 7.76485C199.901 7.43598 200.346 7.25123 200.81 7.25123ZM202.437 11.7756C202.762 11.7738 203.081 11.869 203.352 12.0491C203.624 12.2292 203.836 12.486 203.962 12.787C204.088 13.0881 204.121 13.4198 204.059 13.7401C203.996 14.0605 203.841 14.355 203.611 14.5864C203.381 14.8178 203.088 14.9757 202.769 15.04C202.45 15.1043 202.119 15.0722 201.818 14.9477C201.517 14.8232 201.26 14.6119 201.079 14.3407C200.898 14.0694 200.801 13.7504 200.801 13.424C200.8 13.2079 200.842 12.9937 200.923 12.7938C201.005 12.5939 201.125 12.4121 201.277 12.2589C201.429 12.1057 201.61 11.9841 201.809 11.9012C202.008 11.8183 202.221 11.7756 202.437 11.7756ZM205.008 4.76986C205.354 4.76986 205.692 4.87271 205.979 5.0654C206.267 5.25809 206.491 5.53196 206.623 5.85239C206.756 6.17283 206.79 6.52542 206.723 6.86559C206.656 7.20576 206.489 7.51822 206.244 7.76347C206 8.00872 205.688 8.17573 205.349 8.2434C205.01 8.31106 204.658 8.27633 204.338 8.14361C204.019 8.01088 203.746 7.78611 203.553 7.49773C203.361 7.20935 203.259 6.87031 203.259 6.52348C203.259 6.05839 203.443 5.61235 203.771 5.28348C204.099 4.95461 204.544 4.76986 205.008 4.76986ZM195.1 6.05C195.477 6.05 195.845 6.1621 196.159 6.37213C196.472 6.58217 196.717 6.88069 196.861 7.22996C197.005 7.57923 197.043 7.96356 196.969 8.33434C196.896 8.70513 196.714 9.04571 196.448 9.31303C196.181 9.58035 195.841 9.7624 195.472 9.83616C195.102 9.90991 194.718 9.87206 194.37 9.72738C194.022 9.58271 193.724 9.33772 193.514 9.02338C193.305 8.70905 193.193 8.33949 193.193 7.96144C193.193 7.45449 193.394 6.96831 193.752 6.60985C194.109 6.25138 194.594 6.05 195.1 6.05ZM197.373 10.7672C197.74 10.7655 198.1 10.873 198.406 11.0762C198.712 11.2794 198.951 11.5691 199.092 11.9086C199.234 12.2481 199.272 12.6221 199.201 12.9833C199.131 13.3445 198.955 13.6765 198.696 13.9373C198.437 14.1982 198.107 14.3761 197.747 14.4485C197.387 14.5209 197.014 14.4847 196.675 14.3442C196.335 14.2038 196.045 13.9656 195.841 13.6597C195.637 13.3538 195.528 12.9941 195.528 12.6261C195.528 12.1346 195.722 11.6631 196.068 11.3148C196.414 10.9664 196.883 10.7695 197.373 10.7672ZM193.062 0.631322C193.439 0.629586 193.809 0.740213 194.124 0.949187C194.438 1.15816 194.684 1.45608 194.83 1.80519C194.975 2.15431 195.014 2.53891 194.942 2.91026C194.869 3.28162 194.688 3.62303 194.422 3.89123C194.156 4.15943 193.816 4.34235 193.446 4.41681C193.076 4.49128 192.692 4.45394 192.343 4.30953C191.994 4.16512 191.696 3.92013 191.486 3.60561C191.276 3.29109 191.164 2.92118 191.164 2.54276C191.167 2.03804 191.367 1.5545 191.722 1.19678C192.077 0.839064 192.559 0.635926 193.062 0.631322ZM199.175 2.29726C199.552 2.29726 199.92 2.40936 200.234 2.61939C200.547 2.82943 200.792 3.12795 200.936 3.47722C201.08 3.82649 201.118 4.21082 201.045 4.5816C200.971 4.95239 200.789 5.29297 200.523 5.56029C200.256 5.82761 199.916 6.00966 199.547 6.08342C199.177 6.15717 198.794 6.11932 198.445 5.97464C198.097 5.82997 197.799 5.58498 197.59 5.27064C197.38 4.95631 197.268 4.58675 197.268 4.2087C197.268 3.95769 197.318 3.70913 197.413 3.47722C197.509 3.24532 197.65 3.0346 197.827 2.85711C198.004 2.67961 198.214 2.53882 198.445 2.44276C198.676 2.3467 198.924 2.29726 199.175 2.29726ZM210.945 12.2753C211.2 12.2753 211.448 12.3509 211.66 12.4926C211.871 12.6342 212.036 12.8355 212.133 13.071C212.23 13.3065 212.256 13.5657 212.206 13.8157C212.157 14.0657 212.034 14.2954 211.854 14.4756C211.675 14.6559 211.446 14.7787 211.196 14.8284C210.947 14.8781 210.688 14.8526 210.453 14.755C210.219 14.6575 210.018 14.4923 209.877 14.2803C209.735 14.0684 209.66 13.8192 209.66 13.5642C209.66 13.2224 209.795 12.8946 210.036 12.6529C210.278 12.4111 210.604 12.2753 210.945 12.2753ZM207.133 14.1868C207.404 14.1868 207.67 14.2675 207.895 14.4188C208.121 14.57 208.297 14.785 208.401 15.0366C208.505 15.2881 208.532 15.5649 208.479 15.8319C208.426 16.099 208.295 16.3442 208.103 16.5368C207.911 16.7293 207.667 16.8604 207.4 16.9135C207.134 16.9666 206.858 16.9394 206.607 16.8352C206.356 16.731 206.142 16.5545 205.991 16.3282C205.84 16.1018 205.76 15.8356 205.76 15.5634C205.76 15.1983 205.904 14.8481 206.162 14.59C206.419 14.3318 206.769 14.1868 207.133 14.1868ZM214.854 11.2582C215.081 11.2582 215.303 11.3258 215.492 11.4524C215.68 11.579 215.827 11.759 215.914 11.9694C216 12.1797 216.022 12.4111 215.977 12.6342C215.932 12.8572 215.822 13.0619 215.661 13.2222C215.5 13.3824 215.295 13.4911 215.072 13.5345C214.85 13.5778 214.619 13.5538 214.41 13.4655C214.201 13.3772 214.022 13.2286 213.898 13.0386C213.773 12.8486 213.707 12.6256 213.709 12.3981C213.711 12.095 213.833 11.8051 214.047 11.5916C214.262 11.378 214.552 11.2582 214.854 11.2582ZM206.381 9.72383C206.687 9.72383 206.986 9.81485 207.241 9.98538C207.495 10.1559 207.693 10.3983 207.811 10.6819C207.928 10.9655 207.958 11.2775 207.899 11.5785C207.839 11.8796 207.692 12.1561 207.475 12.3732C207.259 12.5902 206.983 12.738 206.683 12.7979C206.382 12.8578 206.071 12.8271 205.788 12.7096C205.505 12.5921 205.264 12.3932 205.094 12.138C204.924 11.8828 204.833 11.5827 204.833 11.2758C204.833 10.8642 204.996 10.4694 205.286 10.1784C205.576 9.88733 205.97 9.72383 206.381 9.72383ZM210.29 7.78608C210.575 7.78608 210.854 7.87093 211.091 8.0299C211.328 8.18887 211.513 8.41482 211.623 8.67917C211.732 8.94353 211.76 9.23442 211.705 9.51506C211.649 9.7957 211.512 10.0535 211.31 10.2558C211.108 10.4581 210.851 10.5959 210.571 10.6517C210.291 10.7076 210.001 10.6789 209.737 10.5694C209.474 10.4599 209.248 10.2745 209.09 10.0366C208.931 9.79866 208.847 9.51895 208.847 9.23281C208.847 9.04282 208.884 8.8547 208.956 8.67917C209.029 8.50365 209.135 8.34416 209.269 8.20982C209.403 8.07548 209.562 7.96891 209.737 7.89621C209.912 7.8235 210.1 7.78608 210.29 7.78608ZM202.437 23.516C202.762 23.5159 203.08 23.4185 203.35 23.2364C203.619 23.0542 203.829 22.7955 203.951 22.4933C204.074 22.1911 204.103 21.8592 204.037 21.54C203.97 21.2209 203.81 20.9289 203.577 20.7014C203.343 20.4739 203.048 20.3213 202.728 20.2631C202.408 20.2049 202.078 20.2437 201.78 20.3745C201.482 20.5054 201.23 20.7223 201.055 20.9977C200.881 21.273 200.793 21.5942 200.801 21.9202C200.801 22.3551 200.974 22.7721 201.28 23.0796C201.587 23.3871 202.003 23.5599 202.437 23.5599V23.516ZM205.008 30.5217C205.354 30.5217 205.692 30.4189 205.979 30.2262C206.267 30.0335 206.491 29.7596 206.623 29.4392C206.756 29.1188 206.79 28.7662 206.723 28.426C206.656 28.0858 206.489 27.7734 206.244 27.5281C206 27.2829 205.688 27.1158 205.349 27.0482C205.01 26.9805 204.658 27.0152 204.338 27.148C204.019 27.2807 203.746 27.5055 203.553 27.7938C203.361 28.0822 203.259 28.4213 203.259 28.7681C203.259 29.2332 203.443 29.6792 203.771 30.0081C204.099 30.337 204.544 30.5217 205.008 30.5217ZM197.373 24.5507C197.741 24.5524 198.1 24.4446 198.407 24.241C198.713 24.0375 198.952 23.7472 199.093 23.4072C199.235 23.0672 199.272 22.6927 199.201 22.3313C199.129 21.97 198.953 21.6379 198.693 21.3774C198.433 21.117 198.102 20.9397 197.742 20.8683C197.381 20.7969 197.008 20.8344 196.669 20.9762C196.329 21.118 196.04 21.3576 195.837 21.6646C195.634 21.9716 195.526 22.3322 195.528 22.7006C195.53 23.1905 195.726 23.6598 196.071 24.0062C196.417 24.3527 196.885 24.5484 197.373 24.5507ZM193.062 34.6603C193.44 34.662 193.81 34.5511 194.124 34.3418C194.439 34.1324 194.685 33.834 194.83 33.4844C194.976 33.1347 195.014 32.7497 194.941 32.3781C194.868 32.0065 194.686 31.6651 194.419 31.3972C194.152 31.1294 193.811 30.9472 193.441 30.8737C193.07 30.8002 192.686 30.8388 192.337 30.9846C191.988 31.1303 191.691 31.3767 191.482 31.6924C191.273 32.008 191.163 32.3788 191.164 32.7576C191.167 33.2615 191.367 33.7441 191.723 34.1004C192.078 34.4567 192.559 34.658 193.062 34.6603ZM199.175 32.9943C199.552 32.9943 199.921 32.882 200.235 32.6716C200.548 32.4611 200.793 32.1621 200.937 31.8123C201.081 31.4625 201.118 31.0778 201.044 30.7067C200.97 30.3357 200.787 29.9952 200.52 29.7282C200.252 29.4612 199.912 29.2799 199.541 29.2071C199.171 29.1343 198.787 29.1734 198.439 29.3195C198.091 29.4655 197.794 29.7118 197.585 30.0273C197.377 30.3428 197.267 30.7132 197.268 31.0916C197.268 31.3422 197.318 31.5904 197.414 31.8218C197.51 32.0532 197.65 32.2634 197.827 32.4402C198.004 32.6169 198.215 32.7569 198.446 32.852C198.677 32.9471 198.925 32.9955 199.175 32.9943ZM207.133 21.1048C207.404 21.1048 207.67 21.0241 207.895 20.8728C208.121 20.7215 208.297 20.5065 208.401 20.255C208.505 20.0035 208.532 19.7267 208.479 19.4597C208.426 19.1926 208.295 18.9473 208.103 18.7548C207.911 18.5623 207.667 18.4312 207.4 18.3781C207.134 18.325 206.858 18.3522 206.607 18.4564C206.356 18.5606 206.142 18.737 205.991 18.9634C205.84 19.1898 205.76 19.4559 205.76 19.7282C205.76 20.0933 205.904 20.4434 206.162 20.7016C206.419 20.9598 206.769 21.1048 207.133 21.1048ZM214.854 24.0421C215.081 24.0421 215.302 23.9747 215.491 23.8485C215.679 23.7223 215.826 23.5429 215.913 23.333C216 23.1232 216.022 22.8922 215.978 22.6694C215.934 22.4466 215.825 22.2419 215.664 22.0813C215.504 21.9207 215.3 21.8113 215.078 21.7669C214.856 21.7226 214.625 21.7454 214.416 21.8323C214.207 21.9192 214.028 22.0665 213.902 22.2554C213.776 22.4442 213.709 22.6663 213.709 22.8935C213.709 23.1981 213.83 23.4903 214.044 23.7057C214.259 23.9211 214.551 24.0421 214.854 24.0421ZM210.29 27.5143C210.577 27.516 210.859 27.4321 211.098 27.2732C211.338 27.1144 211.526 26.8877 211.637 26.6219C211.748 26.3561 211.778 26.0631 211.723 25.7802C211.668 25.4973 211.531 25.2371 211.328 25.0327C211.125 24.8283 210.867 24.6888 210.585 24.6319C210.303 24.575 210.011 24.6033 209.745 24.7132C209.479 24.8231 209.252 25.0097 209.092 25.2492C208.932 25.4888 208.847 25.7705 208.847 26.0588C208.846 26.2495 208.882 26.4386 208.954 26.6151C209.026 26.7916 209.132 26.9522 209.266 27.0874C209.4 27.2227 209.56 27.3301 209.735 27.4033C209.911 27.4766 210.099 27.5143 210.29 27.5143ZM106.12 23.7265C106.12 23.9369 105.989 24.007 105.831 24.0859C104.491 24.555 103.079 24.7836 101.66 24.7611C96.719 24.7611 95.3811 22.4639 95.3811 17.6852C95.3811 12.9066 96.719 10.5831 101.66 10.5831C103.079 10.5651 104.49 10.7935 105.831 11.2582C105.989 11.3372 106.12 11.4161 106.12 11.644C106.126 11.7052 106.126 11.767 106.12 11.8282L105.884 12.9856C105.882 13.0267 105.871 13.0669 105.853 13.1039C105.835 13.1409 105.81 13.1739 105.779 13.2009C105.748 13.2279 105.712 13.2484 105.673 13.2611C105.634 13.2738 105.592 13.2785 105.551 13.2749C105.494 13.2865 105.434 13.2865 105.377 13.2749C104.328 12.9637 103.243 12.7898 102.15 12.7576C99.2726 12.7576 98.3981 13.9939 98.3981 17.7116C98.3981 21.4292 99.2726 22.648 102.15 22.648C103.273 22.6211 104.389 22.4562 105.473 22.157C105.518 22.1422 105.567 22.138 105.614 22.1449C105.662 22.1517 105.707 22.1693 105.747 22.1964C105.786 22.2235 105.819 22.2593 105.843 22.3011C105.867 22.3429 105.881 22.3895 105.884 22.4375L106.12 23.5248C106.128 23.5918 106.128 23.6595 106.12 23.7265ZM132.39 18.6936C132.393 18.7546 132.385 18.8158 132.365 18.8735C132.345 18.9313 132.313 18.9845 132.273 19.0301C132.232 19.0757 132.183 19.1128 132.128 19.1393C132.073 19.1659 132.013 19.1812 131.952 19.1846H122.998C122.961 19.6578 123.028 20.1332 123.193 20.5782C123.357 21.0232 123.616 21.4272 123.951 21.7624C124.668 22.4639 125.7 22.6918 127.274 22.6918C128.524 22.6689 129.765 22.4621 130.955 22.0781C131.013 22.0681 131.072 22.0681 131.13 22.0781C131.288 22.0781 131.419 22.0781 131.463 22.3586L131.725 23.5248C131.733 23.5742 131.733 23.6245 131.725 23.6738C131.719 23.7562 131.689 23.8348 131.637 23.8991C131.585 23.9633 131.515 24.0102 131.436 24.0333C129.971 24.5791 128.418 24.8524 126.854 24.84C121.808 24.84 120.007 22.6918 120.007 17.7642C120.007 13.0908 121.196 10.6094 126.242 10.6094C128.865 10.6094 130.44 11.3372 131.366 12.6787C132.162 13.8361 132.39 15.4669 132.39 17.4836C132.416 17.7905 132.416 18.3078 132.39 18.6936ZM129.224 14.6953C128.839 13.1697 127.991 12.6787 126.268 12.6787C124.388 12.6787 123.566 13.196 123.225 14.6427C123.06 15.4651 122.984 16.3029 122.998 17.1416H129.425C129.467 16.3208 129.4 15.4981 129.224 14.6953ZM141.187 10.5831C139.44 10.588 137.705 10.8691 136.045 11.4161C134.829 11.8282 134.523 12.2403 134.523 13.4766V29.2591C134.518 29.3182 134.528 29.3776 134.551 29.4323C134.574 29.487 134.609 29.5353 134.655 29.5732C134.7 29.6111 134.754 29.6374 134.812 29.6499C134.87 29.6624 134.93 29.6607 134.987 29.6449L137.068 29.2328C137.125 29.2296 137.18 29.2148 137.231 29.1894C137.282 29.164 137.327 29.1285 137.364 29.085C137.401 29.0416 137.429 28.9911 137.445 28.9366C137.462 28.8821 137.468 28.8248 137.462 28.7681V24.4104C138.59 24.6826 139.747 24.818 140.907 24.8137C145.647 24.8137 146.723 22.1307 146.723 17.7116C146.723 13.5555 146.04 10.5831 141.187 10.5831ZM140.313 22.7181C139.35 22.7299 138.391 22.609 137.462 22.3586V13.2486C138.469 12.9676 139.504 12.8029 140.549 12.7576C142.709 12.7576 143.741 13.2223 143.741 17.6852C143.741 21.666 142.892 22.7181 140.313 22.7181ZM118.634 10.7672H108.044C107.992 10.7633 107.94 10.7706 107.892 10.7886C107.843 10.8066 107.799 10.8348 107.763 10.8715C107.726 10.9081 107.698 10.9523 107.68 11.0008C107.662 11.0494 107.655 11.1014 107.659 11.153V12.8102C107.655 12.8622 107.662 12.9145 107.68 12.9635C107.698 13.0125 107.726 13.0571 107.763 13.0944C107.799 13.1317 107.843 13.1609 107.891 13.1799C107.94 13.1989 107.992 13.2074 108.044 13.2048H111.935V24.0859C111.931 24.1376 111.939 24.1895 111.956 24.2381C111.974 24.2867 112.003 24.3309 112.039 24.3675C112.076 24.4041 112.12 24.4324 112.168 24.4504C112.217 24.4684 112.268 24.4757 112.32 24.4717H114.463C114.514 24.4757 114.566 24.4684 114.614 24.4504C114.663 24.4324 114.707 24.4041 114.743 24.3675C114.78 24.3309 114.808 24.2867 114.826 24.2381C114.844 24.1895 114.851 24.1376 114.847 24.0859V13.2048H118.678C118.73 13.2074 118.781 13.1989 118.83 13.1799C118.878 13.1609 118.922 13.1317 118.959 13.0944C118.995 13.0571 119.023 13.0125 119.041 12.9635C119.059 12.9145 119.066 12.8622 119.062 12.8102V11.153C119.068 11.0971 119.06 11.0408 119.039 10.9885C119.019 10.9363 118.987 10.8895 118.945 10.852C118.903 10.8145 118.853 10.7873 118.799 10.7726C118.745 10.7579 118.689 10.756 118.634 10.7672ZM59.2819 20.7365V20.4647C59.3513 19.7875 59.1758 19.1078 58.7874 18.5494C58.399 17.9909 57.8235 17.5909 57.1657 17.4222V17.2118H57.2181C57.2614 17.1967 57.3026 17.176 57.3406 17.1504C57.7991 16.9177 58.1851 16.5632 58.4565 16.1257C58.7279 15.6881 58.8742 15.1843 58.8797 14.669V14.5901C58.8797 13.2223 58.801 12.0035 57.463 11.2582C56.1146 10.7127 54.6657 10.4617 53.213 10.5217C51.7098 10.4483 50.2045 10.614 48.753 11.0127C48.7052 11.0221 48.6597 11.041 48.6192 11.0682C48.5786 11.0954 48.5439 11.1305 48.5171 11.1713C48.4902 11.2121 48.4717 11.2579 48.4627 11.3059C48.4537 11.354 48.4543 11.4033 48.4645 11.4511L48.753 12.9154C48.7722 12.9817 48.8125 13.04 48.8677 13.0811C48.923 13.1223 48.9902 13.1442 49.0591 13.1434H49.2428C50.4542 12.8724 51.6919 12.7372 52.9331 12.74C53.7215 12.675 54.5143 12.792 55.2505 13.082C55.4911 13.2229 55.6864 13.4299 55.8134 13.6784C55.9405 13.927 55.994 14.2068 55.9676 14.4849C55.9676 15.3617 55.8802 16.3876 53.5278 16.3876H51.5951C51.5106 16.386 51.4266 16.4023 51.3487 16.4354C51.2708 16.4685 51.2007 16.5177 51.143 16.5797C51.0853 16.6417 51.0412 16.7152 51.0136 16.7954C50.9861 16.8756 50.9756 16.9607 50.983 17.0452V18.0184C50.9755 18.1025 50.9859 18.1873 51.0136 18.267C51.0412 18.3468 51.0854 18.4198 51.1433 18.4811C51.2012 18.5424 51.2714 18.5908 51.3493 18.6229C51.4272 18.6549 51.511 18.6701 51.5951 18.6673H53.1168C55.6353 18.6673 56.3699 19.2197 56.3699 20.4823C56.3699 21.6046 56.0463 22.4726 53.2742 22.4726C51.8251 22.4344 50.3836 22.2493 48.9717 21.9202H48.788C48.718 21.92 48.6499 21.9431 48.5945 21.986C48.539 22.0288 48.4994 22.089 48.4819 22.157L48.0972 23.7703C48.087 23.8181 48.0864 23.8675 48.0954 23.9155C48.1044 23.9636 48.1229 24.0093 48.1498 24.0502C48.1767 24.091 48.2114 24.126 48.2519 24.1532C48.2924 24.1804 48.3379 24.1993 48.3858 24.2087C50.089 24.6181 51.838 24.8038 53.589 24.7611C54.9755 24.8624 56.3657 24.6216 57.6379 24.0596C58.9759 23.3144 59.2819 22.1044 59.2819 20.7365ZM30.5111 10.7672H26.9519C26.707 10.7672 26.6021 10.7672 26.401 11.2056V11.267L20.9354 21.9202H20.8567V11.118C20.8606 11.0663 20.8534 11.0144 20.8354 10.9658C20.8175 10.9172 20.7893 10.873 20.7527 10.8364C20.7162 10.7998 20.6721 10.7715 20.6237 10.7535C20.5752 10.7355 20.5234 10.7282 20.4719 10.7322H18.3731C18.3216 10.7282 18.2698 10.7355 18.2213 10.7535C18.1729 10.7715 18.1289 10.7998 18.0923 10.8364C18.0558 10.873 18.0276 10.9172 18.0096 10.9658C17.9917 11.0144 17.9844 11.0663 17.9883 11.118V24.0859C17.9844 24.1376 17.9917 24.1895 18.0096 24.2381C18.0276 24.2867 18.0558 24.3309 18.0923 24.3675C18.1289 24.4041 18.1729 24.4324 18.2213 24.4504C18.2698 24.4684 18.3216 24.4757 18.3731 24.4717H22.1422C22.387 24.4717 22.492 24.4717 22.6844 24.0421L22.7281 23.9807L27.9751 13.573H28.045L27.9401 24.0947C27.9362 24.1464 27.9434 24.1983 27.9614 24.2469C27.9793 24.2955 28.0075 24.3396 28.0441 24.3763C28.0806 24.4129 28.1246 24.4412 28.1731 24.4592C28.2216 24.4772 28.2733 24.4845 28.3249 24.4805H30.4761C30.5276 24.4845 30.5794 24.4772 30.6279 24.4592C30.6764 24.4412 30.7204 24.4129 30.7569 24.3763C30.7935 24.3396 30.8217 24.2955 30.8396 24.2469C30.8576 24.1983 30.8648 24.1464 30.8609 24.0947V11.153C30.8645 11.1044 30.8581 11.0555 30.8423 11.0094C30.8264 10.9633 30.8013 10.9209 30.7686 10.8848C30.7359 10.8487 30.6962 10.8197 30.6519 10.7995C30.6076 10.7793 30.5597 10.7683 30.5111 10.7672ZM46.1121 11.004C46.1099 10.9437 46.0956 10.8844 46.07 10.8298C46.0443 10.7752 46.008 10.7264 45.963 10.6862C45.9181 10.6461 45.8655 10.6155 45.8085 10.5962C45.7514 10.577 45.6911 10.5696 45.6311 10.5743L45.0977 10.6269L44.1182 10.7409H44.0745C43.4711 10.8111 43.2 10.8461 43.2 11.2232V16.5454H36.7287V11.004C36.7266 10.9437 36.7122 10.8844 36.6866 10.8298C36.661 10.7752 36.6247 10.7264 36.5797 10.6862C36.5348 10.6461 36.4822 10.6155 36.4252 10.5962C36.3681 10.577 36.3078 10.5696 36.2478 10.5743L35.7143 10.6269L34.7262 10.7497C34.114 10.8198 33.8517 10.8549 33.8517 11.2319V24.0859C33.849 24.1381 33.8575 24.1901 33.8765 24.2387C33.8954 24.2873 33.9245 24.3313 33.9617 24.3678C33.9989 24.4042 34.0434 24.4324 34.0923 24.4503C34.1412 24.4682 34.1933 24.4755 34.2452 24.4717H36.3877C36.4392 24.4757 36.491 24.4684 36.5395 24.4504C36.5879 24.4324 36.632 24.4041 36.6685 24.3675C36.705 24.3309 36.7333 24.2867 36.7512 24.2381C36.7691 24.1895 36.7764 24.1376 36.7725 24.0859V18.9829H43.2787V24.0859C43.2748 24.1376 43.282 24.1895 43.3 24.2381C43.3179 24.2867 43.3461 24.3309 43.3827 24.3675C43.4192 24.4041 43.4632 24.4324 43.5117 24.4504C43.5602 24.4684 43.6119 24.4757 43.6635 24.4717H45.8147C45.8663 24.4757 45.918 24.4684 45.9665 24.4504C46.015 24.4324 46.059 24.4041 46.0955 24.3675C46.1321 24.3309 46.1603 24.2867 46.1782 24.2381C46.1962 24.1895 46.2034 24.1376 46.1995 24.0859L46.1121 11.004ZM0.559676 24.7699L0 21.9202C2.05506 21.5169 2.88583 20.5787 2.88583 18.6848V10.6883C2.88583 7.12847 4.90591 4.98906 8.28146 4.98906L8.64 7.61949C6.48 7.61949 5.78915 9.24158 5.78915 10.7672V18.6585C5.78915 21.0434 4.87968 23.9281 0.559676 24.7699Z" fill="#0157B8"/>
<path d="M14.5076 4.99219H8.28125L8.47364 7.62261H12.2427V23.8611C12.2414 23.9436 12.257 24.0254 12.2884 24.1016C12.3198 24.1778 12.3665 24.2467 12.4254 24.3042C12.4844 24.3617 12.5544 24.4065 12.6313 24.4358C12.7082 24.4652 12.7902 24.4785 12.8723 24.4749H14.4989C14.6653 24.4773 14.826 24.4145 14.9469 24.2999C15.0678 24.1852 15.1392 24.0278 15.146 23.8611V5.60595C15.1393 5.4408 15.069 5.28467 14.95 5.17027C14.831 5.05586 14.6725 4.99205 14.5076 4.99219ZM91.1308 24.4573C89.982 24.7087 88.8086 24.8293 87.6328 24.8168C85.0618 24.8168 81.5114 24.6064 81.5114 20.4766C81.5114 17.0921 83.514 16.8116 85.7789 16.4258L90.4662 15.6542V14.6985C90.4662 13.9181 90.4137 13.3569 89.6704 13.0413C88.9852 12.8331 88.269 12.747 87.5541 12.787C86.0387 12.8498 84.5359 13.0912 83.0767 13.506H82.9018C82.8318 13.5073 82.7633 13.4857 82.7065 13.4446C82.6497 13.4035 82.6078 13.3451 82.587 13.278L82.2809 11.8576C82.2601 11.7623 82.2779 11.6625 82.3304 11.5803C82.3828 11.4981 82.4657 11.4402 82.5608 11.4192C84.3545 10.8625 86.2188 10.5673 88.0963 10.5424C89.4139 10.4593 90.7317 10.7001 91.9353 11.2438C93.2733 11.9891 93.4045 13.2079 93.4045 14.5757V21.7217C93.422 23.677 92.906 24.0365 91.1308 24.4573ZM90.5099 17.6884L86.5747 18.3372C85.5166 18.5126 84.5109 18.6704 84.5109 20.424C84.5109 22.6423 86.3123 22.8002 87.7028 22.8002C88.6457 22.8116 89.5844 22.6725 90.4837 22.3881L90.5099 17.6884ZM79.0366 11.6384V11.1825C79.0298 11.0693 78.9796 10.9631 78.8964 10.8863C78.8132 10.8094 78.7036 10.7679 78.5906 10.7704H73.501C73.3868 10.7794 73.2782 10.824 73.1904 10.8979C73.1027 10.9718 73.04 11.0712 73.0113 11.1825L70.5277 18.8984L68.1491 11.1825C68.1216 11.0706 68.0593 10.9704 67.9713 10.8963C67.8833 10.8223 67.774 10.7781 67.6594 10.7704H62.4824C62.3693 10.7679 62.2597 10.8094 62.1765 10.8863C62.0934 10.9631 62.0432 11.0693 62.0364 11.1825V11.6384L61.5467 24.0628C61.5454 24.118 61.5555 24.1729 61.5763 24.224C61.597 24.2751 61.628 24.3215 61.6674 24.3601C61.7068 24.3987 61.7536 24.4289 61.805 24.4486C61.8565 24.4683 61.9114 24.4773 61.9664 24.4749H64.1002C64.1545 24.4761 64.2085 24.4662 64.2589 24.4459C64.3093 24.4257 64.3551 24.3953 64.3935 24.3568C64.4319 24.3183 64.4621 24.2724 64.4824 24.2219C64.5026 24.1713 64.5124 24.1172 64.5112 24.0628L65.0359 13.2342H65.9104L68.9187 21.4411V21.5113C68.9433 21.6254 69.0045 21.7283 69.0929 21.8043C69.1813 21.8803 69.2921 21.9252 69.4084 21.9321H71.5684C71.6846 21.9252 71.7954 21.8803 71.8839 21.8043C71.9723 21.7283 72.0335 21.6254 72.0581 21.5113V21.4411L75.1625 13.2342H76.037L76.4568 24.0628C76.4568 24.1176 76.4677 24.1719 76.4889 24.2225C76.5101 24.2731 76.5412 24.3189 76.5803 24.3573C76.6194 24.3957 76.6657 24.4259 76.7166 24.4461C76.7675 24.4662 76.8219 24.476 76.8766 24.4749H79.0103C79.065 24.4774 79.1195 24.4684 79.1705 24.4486C79.2215 24.4288 79.2678 24.3985 79.3065 24.3597C79.3452 24.3209 79.3753 24.2745 79.3951 24.2234C79.4149 24.1723 79.4238 24.1176 79.4213 24.0628L79.0366 11.6384Z" fill="#0157B8"/>
</svg>
