<?xml version="1.0" encoding="UTF-8"?>
<!DOCTYPE svg PUBLIC "-//W3C//DTD SVG 1.1//EN" "http://www.w3.org/Graphics/SVG/1.1/DTD/svg11.dtd">
<!-- Creator: CorelDRAW X7 -->
<svg xmlns="http://www.w3.org/2000/svg" xml:space="preserve" width="400px" height="405px" version="1.1" style="shape-rendering:geometricPrecision; text-rendering:geometricPrecision; image-rendering:optimizeQuality; fill-rule:evenodd; clip-rule:evenodd"
viewBox="0 0 45 46"
 xmlns:xlink="http://www.w3.org/1999/xlink">
 <defs>
  <style type="text/css">
   <![CDATA[
    .fil0 {fill:white;fill-rule:nonzero}
   ]]>
  </style>
 </defs>
 <g id="Слой_x0020_1">
  <metadata id="CorelCorpID_0Corel-Layer"/>
  <g id="_411253168">
   <path class="fil0" d="M44 30l0 0c-3,9 -12,15 -21,15 -6,0 -12,-3 -16,-7 3,2 8,4 12,4 4,0 8,-1 11,-3 3,-2 6,-5 7,-9l0 0 -1 0 0 0c-3,7 -10,11 -17,11 -5,0 -10,-2 -13,-6 2,2 6,3 9,3 6,0 11,-3 14,-8l0 0 -1 0 0 0c-3,4 -8,7 -13,7 -4,0 -8,-2 -11,-5 2,1 5,2 7,2 3,0 7,-1 9,-4l0 0 -2 0 0 0c-1,2 -4,3 -7,3 -5,0 -10,-5 -10,-10 0,-6 5,-10 10,-10 3,0 5,1 7,2l0 0 2 0 -1 0c-2,-2 -5,-3 -8,-3 -2,0 -5,1 -7,2 3,-3 7,-5 11,-5 5,0 10,2 12,6l0 0 2 0 0 0c-2,-2 -4,-4 -6,-5 -2,-2 -5,-2 -8,-2 -3,0 -7,1 -9,3 3,-4 8,-6 13,-6 7,0 14,4 17,10l0 0 1 0 0 0c-3,-7 -10,-11 -18,-11 -4,0 -9,1 -12,4 4,-4 10,-7 16,-7 4,0 9,2 12,4 4,3 7,6 8,10l0 0 2 0 0 0c-4,-9 -12,-15 -22,-15 -13,0 -23,10 -23,22 0,1 0,1 0,1 0,0 0,0 0,0 0,13 10,23 23,23 5,0 10,-2 14,-5 3,-2 6,-6 8,-11l0 0 -1 0z"/>
   <path class="fil0" d="M8 21c0,0 -1,-1 -2,-1 -1,0 -2,1 -2,3 0,1 1,2 2,2 1,0 2,0 2,-1l2 0c-1,2 -2,3 -4,3 -2,0 -4,-2 -4,-4 0,-2 2,-4 4,-4 2,0 3,1 4,2l-2 0z"/>
   <path class="fil0" d="M16 25c1,0 2,-1 2,-2 0,-2 -1,-3 -2,-3l0 0 0 5 0 0zm-2 0l0 -5 0 0c-2,0 -2,1 -2,3 0,1 0,2 2,2l0 0zm0 1l0 0c-2,0 -4,-1 -4,-3 0,-2 2,-4 4,-4l0 0 0 -2 2 0 0 2 0 0c2,0 3,2 3,4 0,2 -1,3 -3,3l0 0 0 2 -2 0 0 -2z"/>
   <path class="fil0" d="M22 22l5 0c-1,-1 -1,-2 -3,-2 -1,0 -2,1 -2,2zm4 2l2 0c-1,2 -2,3 -4,3 -2,0 -4,-2 -4,-4 0,-2 2,-4 4,-4 2,0 4,2 4,4 0,0 0,0 0,0l-6 0c0,1 1,2 2,2 1,0 2,0 2,-1z"/>
   <path class="fil0" d="M33 25c1,0 2,-1 2,-2 0,-2 -1,-3 -2,-3 -1,0 -3,1 -3,3 0,1 2,2 3,2zm-4 3l0 -9 1 0 0 1c1,-1 2,-1 3,-1 2,0 4,2 4,4 0,2 -2,4 -4,4 -1,0 -2,-1 -3,-1l0 2 -1 0z"/>
   <path class="fil0" d="M41 20c-1,0 -2,1 -2,3 0,1 1,2 2,2 2,0 3,-1 3,-2 0,-2 -1,-3 -3,-3zm4 -1l0 7 -1 0 0 0c-1,0 -2,1 -3,1 -2,0 -3,-2 -3,-4 0,-2 1,-4 3,-4 1,0 2,0 3,1l0 -1 1 0z"/>
  </g>
 </g>
</svg>
